<?xml version="1.0" standalone="no"?>
 <!DOCTYPE svg PUBLIC "-//W3C//DTD SVG 1.1//EN" 
 "http://www.w3.org/Graphics/SVG/1.1/DTD/svg11.dtd"> 
<svg
  xmlns:svg="http://www.w3.org/2000/svg"
  xmlns="http://www.w3.org/2000/svg"
  xmlns:xlink="http://www.w3.org/1999/xlink"
  version="1.1"
  width="297,0022mm" height="210,0072mm" viewBox="0,0000 0,0000 297,0022 210,0072">
<title>SVG Image created as Stromanschluss-LargePad.kicad_pcb_F.svg date 2025/02/27 15:04:13 </title>
  <desc>Image generated by PCBNEW </desc>
<g style="fill:#000000; fill-opacity:1,0000;stroke:#000000; stroke-opacity:1,0000;
stroke-linecap:round; stroke-linejoin:round;"
 transform="translate(0 0) scale(1 1)">
<path style="fill:#840084; fill-opacity:1,0000; stroke:none;fill-rule:evenodd;"
d="M 134,4500,82,4900
132,2500,82,4900
132,2500,74,9900
134,4500,74,9900
Z" /> 
</g>
<g style="fill:#840084; fill-opacity:1,0000; stroke:none;">
<circle cx="86,9950" cy="85,0900" r="1,0500" /> 
<path style="fill:#840084; fill-opacity:1,0000; stroke:none;fill-rule:evenodd;"
d="M 98,8900,95,1900
96,6900,95,1900
96,6900,87,6900
98,8900,87,6900
Z" /> 
<path style="fill:#840084; fill-opacity:1,0000; stroke:none;fill-rule:evenodd;"
d="M 148,6500,77,1730
148,6500,74,9730
156,1500,74,9730
156,1500,77,1730
Z" /> 
<path style="fill:#840084; fill-opacity:1,0000; stroke:none;fill-rule:evenodd;"
d="M 148,6500,90,2540
148,6500,88,0540
156,1500,88,0540
156,1500,90,2540
Z" /> 
<path style="fill:#840084; fill-opacity:1,0000; stroke:none;fill-rule:evenodd;"
d="M 119,2100,82,4900
117,0100,82,4900
117,0100,74,9900
119,2100,74,9900
Z" /> 
<path style="fill:#840084; fill-opacity:1,0000; stroke:none;fill-rule:evenodd;"
d="M 109,0500,95,1900
106,8500,95,1900
106,8500,87,6900
109,0500,87,6900
Z" /> 
<path style="fill:#840084; fill-opacity:1,0000; stroke:none;fill-rule:evenodd;"
d="M 84,5150,77,3000
84,5150,75,1000
92,0150,75,1000
92,0150,77,3000
Z" /> 
<path style="fill:#840084; fill-opacity:1,0000; stroke:none;fill-rule:evenodd;"
d="M 124,2900,95,1900
122,0900,95,1900
122,0900,87,6900
124,2900,87,6900
Z" /> 
<path style="fill:#840084; fill-opacity:1,0000; stroke:none;fill-rule:evenodd;"
d="M 137,3300,74,9900
139,5300,74,9900
139,5300,82,4900
137,3300,82,4900
Z" /> 
<path style="fill:#840084; fill-opacity:1,0000; stroke:none;fill-rule:evenodd;"
d="M 134,4500,95,1900
132,2500,95,1900
132,2500,87,6900
134,4500,87,6900
Z" /> 
<path style="fill:#840084; fill-opacity:1,0000; stroke:none;fill-rule:evenodd;"
d="M 84,5150,82,1260
84,5150,79,9260
92,0150,79,9260
92,0150,82,1260
Z" /> 
<path style="fill:#840084; fill-opacity:1,0000; stroke:none;fill-rule:evenodd;"
d="M 84,5150,90,2540
84,5150,88,0540
92,0150,88,0540
92,0150,90,2540
Z" /> 
<path style="fill:#840084; fill-opacity:1,0000; stroke:none;fill-rule:evenodd;"
d="M 109,0500,82,4900
106,8500,82,4900
106,8500,74,9900
109,0500,74,9900
Z" /> 
<path style="fill:#840084; fill-opacity:1,0000; stroke:none;fill-rule:evenodd;"
d="M 103,9700,82,4900
101,7700,82,4900
101,7700,74,9900
103,9700,74,9900
Z" /> 
<path style="fill:#840084; fill-opacity:1,0000; stroke:none;fill-rule:evenodd;"
d="M 103,9700,95,1900
101,7700,95,1900
101,7700,87,6900
103,9700,87,6900
Z" /> 
<path style="fill:#840084; fill-opacity:1,0000; stroke:none;fill-rule:evenodd;"
d="M 148,6500,82,1260
148,6500,79,9260
156,1500,79,9260
156,1500,82,1260
Z" /> 
<path style="fill:#840084; fill-opacity:1,0000; stroke:none;fill-rule:evenodd;"
d="M 98,8900,82,4900
96,6900,82,4900
96,6900,74,9900
98,8900,74,9900
Z" /> 
<path style="fill:#840084; fill-opacity:1,0000; stroke:none;fill-rule:evenodd;"
d="M 129,3700,95,1900
127,1700,95,1900
127,1700,87,6900
129,3700,87,6900
Z" /> 
<path style="fill:#840084; fill-opacity:1,0000; stroke:none;fill-rule:evenodd;"
d="M 84,5150,95,0800
84,5150,92,8800
92,0150,92,8800
92,0150,95,0800
Z" /> 
<path style="fill:#840084; fill-opacity:1,0000; stroke:none;fill-rule:evenodd;"
d="M 148,6500,95,2070
148,6500,93,0070
156,1500,93,0070
156,1500,95,2070
Z" /> 
<path style="fill:#840084; fill-opacity:1,0000; stroke:none;fill-rule:evenodd;"
d="M 129,3700,82,4900
127,1700,82,4900
127,1700,74,9900
129,3700,74,9900
Z" /> 
<path style="fill:#840084; fill-opacity:1,0000; stroke:none;fill-rule:evenodd;"
d="M 114,1300,82,4900
111,9300,82,4900
111,9300,74,9900
114,1300,74,9900
Z" /> 
<path style="fill:#840084; fill-opacity:1,0000; stroke:none;fill-rule:evenodd;"
d="M 114,1300,95,1900
111,9300,95,1900
111,9300,87,6900
114,1300,87,6900
Z" /> 
<path style="fill:#840084; fill-opacity:1,0000; stroke:none;fill-rule:evenodd;"
d="M 144,6100,82,4900
142,4100,82,4900
142,4100,74,9900
144,6100,74,9900
Z" /> 
<path style="fill:#840084; fill-opacity:1,0000; stroke:none;fill-rule:evenodd;"
d="M 137,2030,87,6900
139,4030,87,6900
139,4030,95,1900
137,2030,95,1900
Z" /> 
<path style="fill:#840084; fill-opacity:1,0000; stroke:none;fill-rule:evenodd;"
d="M 124,2900,82,4900
122,0900,82,4900
122,0900,74,9900
124,2900,74,9900
Z" /> 
<path style="fill:#840084; fill-opacity:1,0000; stroke:none;fill-rule:evenodd;"
d="M 144,6100,95,1900
142,4100,95,1900
142,4100,87,6900
144,6100,87,6900
Z" /> 
<path style="fill:#840084; fill-opacity:1,0000; stroke:none;fill-rule:evenodd;"
d="M 119,2100,95,1900
117,0100,95,1900
117,0100,87,6900
119,2100,87,6900
Z" /> 
</g>
<g style="fill:#840084; fill-opacity:1,0000; stroke:none;">
<circle cx="153,0350" cy="85,0900" r="1,0500" /> 
</g>
<g style="fill:none; 
stroke:#008484; stroke-width:0,1500; stroke-opacity:1; 
stroke-linecap:round; stroke-linejoin:round;">
<path d="M89,5350 85,0900
L150,4950 85,0900
" />
</g>
<g style="fill:none; 
stroke:#008484; stroke-width:0,3000; stroke-opacity:1; 
stroke-linecap:round; stroke-linejoin:round;">
<text x="135,8900" y="70,6000"
textLength="5,3143" font-size="2,0000" lengthAdjust="spacingAndGlyphs"
text-anchor="middle" opacity="0" stroke-opacity="0">v1.0</text>
<g class="stroked-text"><desc>v1.0</desc>
<path d="M133,7471 69,5283
L134,1043 70,5283
" />
<path d="M134,1043 70,5283
L134,4614 69,5283
" />
<path d="M135,8186 70,5283
L134,9614 70,5283
" />
<path d="M135,3900 70,5283
L135,3900 69,0283
" />
<path d="M135,3900 69,0283
L135,2471 69,2426
" />
<path d="M135,2471 69,2426
L135,1043 69,3855
" />
<path d="M135,1043 69,3855
L134,9614 69,4569
" />
<path d="M136,4614 70,3855
L136,5329 70,4569
" />
<path d="M136,5329 70,4569
L136,4614 70,5283
" />
<path d="M136,4614 70,5283
L136,3900 70,4569
" />
<path d="M136,3900 70,4569
L136,4614 70,3855
" />
<path d="M136,4614 70,3855
L136,4614 70,5283
" />
<path d="M137,4614 69,0283
L137,6043 69,0283
" />
<path d="M137,6043 69,0283
L137,7471 69,0998
" />
<path d="M137,7471 69,0998
L137,8186 69,1712
" />
<path d="M137,8186 69,1712
L137,8900 69,3140
" />
<path d="M137,8900 69,3140
L137,9614 69,5998
" />
<path d="M137,9614 69,5998
L137,9614 69,9569
" />
<path d="M137,9614 69,9569
L137,8900 70,2426
" />
<path d="M137,8900 70,2426
L137,8186 70,3855
" />
<path d="M137,8186 70,3855
L137,7471 70,4569
" />
<path d="M137,7471 70,4569
L137,6043 70,5283
" />
<path d="M137,6043 70,5283
L137,4614 70,5283
" />
<path d="M137,4614 70,5283
L137,3186 70,4569
" />
<path d="M137,3186 70,4569
L137,2471 70,3855
" />
<path d="M137,2471 70,3855
L137,1757 70,2426
" />
<path d="M137,1757 70,2426
L137,1043 69,9569
" />
<path d="M137,1043 69,9569
L137,1043 69,5998
" />
<path d="M137,1043 69,5998
L137,1757 69,3140
" />
<path d="M137,1757 69,3140
L137,2471 69,1712
" />
<path d="M137,2471 69,1712
L137,3186 69,0998
" />
<path d="M137,3186 69,0998
L137,4614 69,0283
" />
</g></g>
<g style="fill:none; 
stroke:#008484; stroke-width:0,1500; stroke-opacity:1; 
stroke-linecap:round; stroke-linejoin:round;">
<g transform="rotate(-90,000000 133,9850 84,4550)">
<text x="133,9850" y="84,9550"
textLength="1,2024" font-size="1,3333" lengthAdjust="spacingAndGlyphs"
text-anchor="start" opacity="0" stroke-opacity="0">2</text>
</g>
<g class="stroked-text"><desc>2</desc>
<path d="M133,5351 84,1658
L133,4874 84,1182
" />
<path d="M133,4874 84,1182
L133,4398 84,0230
" />
<path d="M133,4398 84,0230
L133,4398 83,7849
" />
<path d="M133,4398 83,7849
L133,4874 83,6896
" />
<path d="M133,4874 83,6896
L133,5351 83,6420
" />
<path d="M133,5351 83,6420
L133,6303 83,5944
" />
<path d="M133,6303 83,5944
L133,7255 83,5944
" />
<path d="M133,7255 83,5944
L133,8684 83,6420
" />
<path d="M133,8684 83,6420
L134,4398 84,2135
" />
<path d="M134,4398 84,2135
L134,4398 83,5944
" />
</g><g transform="rotate(-90,000000 98,4250 86,9950)">
<text x="98,4250" y="87,4950"
textLength="1,2024" font-size="1,3333" lengthAdjust="spacingAndGlyphs"
text-anchor="start" opacity="0" stroke-opacity="0">1</text>
</g>
<g class="stroked-text"><desc>1</desc>
<path d="M98,8798 86,1344
L98,8798 86,7058
" />
<path d="M98,8798 86,4201
L97,8798 86,4201
" />
<path d="M97,8798 86,4201
L98,0227 86,5154
" />
<path d="M98,0227 86,5154
L98,1179 86,6106
" />
<path d="M98,1179 86,6106
L98,1655 86,7058
" />
</g><g transform="rotate(-90,000000 147,3200 76,7080)">
<text x="147,3200" y="77,2080"
textLength="1,2024" font-size="1,3333" lengthAdjust="spacingAndGlyphs"
text-anchor="start" opacity="0" stroke-opacity="0">2</text>
</g>
<g class="stroked-text"><desc>2</desc>
<path d="M146,8701 76,4188
L146,8224 76,3712
" />
<path d="M146,8224 76,3712
L146,7748 76,2760
" />
<path d="M146,7748 76,2760
L146,7748 76,0379
" />
<path d="M146,7748 76,0379
L146,8224 75,9426
" />
<path d="M146,8224 75,9426
L146,8701 75,8950
" />
<path d="M146,8701 75,8950
L146,9653 75,8474
" />
<path d="M146,9653 75,8474
L147,0605 75,8474
" />
<path d="M147,0605 75,8474
L147,2034 75,8950
" />
<path d="M147,2034 75,8950
L147,7748 76,4665
" />
<path d="M147,7748 76,4665
L147,7748 75,8474
" />
</g><g transform="rotate(-90,000000 147,4470 89,1540)">
<text x="147,4470" y="89,6540"
textLength="1,2024" font-size="1,3333" lengthAdjust="spacingAndGlyphs"
text-anchor="start" opacity="0" stroke-opacity="0">1</text>
</g>
<g class="stroked-text"><desc>1</desc>
<path d="M147,9018 88,2934
L147,9018 88,8648
" />
<path d="M147,9018 88,5791
L146,9018 88,5791
" />
<path d="M146,9018 88,5791
L147,0447 88,6744
" />
<path d="M147,0447 88,6744
L147,1399 88,7696
" />
<path d="M147,1399 88,7696
L147,1875 88,8648
" />
</g><g transform="rotate(-90,000000 118,7450 84,4550)">
<text x="118,7450" y="84,9550"
textLength="1,2024" font-size="1,3333" lengthAdjust="spacingAndGlyphs"
text-anchor="start" opacity="0" stroke-opacity="0">2</text>
</g>
<g class="stroked-text"><desc>2</desc>
<path d="M118,2951 84,1658
L118,2474 84,1182
" />
<path d="M118,2474 84,1182
L118,1998 84,0230
" />
<path d="M118,1998 84,0230
L118,1998 83,7849
" />
<path d="M118,1998 83,7849
L118,2474 83,6896
" />
<path d="M118,2474 83,6896
L118,2951 83,6420
" />
<path d="M118,2951 83,6420
L118,3903 83,5944
" />
<path d="M118,3903 83,5944
L118,4855 83,5944
" />
<path d="M118,4855 83,5944
L118,6284 83,6420
" />
<path d="M118,6284 83,6420
L119,1998 84,2135
" />
<path d="M119,1998 84,2135
L119,1998 83,5944
" />
</g><g transform="rotate(-90,000000 108,5850 86,9950)">
<text x="108,5850" y="87,4950"
textLength="1,2024" font-size="1,3333" lengthAdjust="spacingAndGlyphs"
text-anchor="start" opacity="0" stroke-opacity="0">1</text>
</g>
<g class="stroked-text"><desc>1</desc>
<path d="M109,0398 86,1344
L109,0398 86,7058
" />
<path d="M109,0398 86,4201
L108,0398 86,4201
" />
<path d="M108,0398 86,4201
L108,1827 86,5154
" />
<path d="M108,1827 86,5154
L108,2779 86,6106
" />
<path d="M108,2779 86,6106
L108,3255 86,7058
" />
</g><g transform="rotate(-90,000000 93,4720 76,8350)">
<text x="93,4720" y="77,3350"
textLength="1,2024" font-size="1,3333" lengthAdjust="spacingAndGlyphs"
text-anchor="start" opacity="0" stroke-opacity="0">2</text>
</g>
<g class="stroked-text"><desc>2</desc>
<path d="M93,0221 76,5458
L92,9744 76,4982
" />
<path d="M92,9744 76,4982
L92,9268 76,4030
" />
<path d="M92,9268 76,4030
L92,9268 76,1649
" />
<path d="M92,9268 76,1649
L92,9744 76,0696
" />
<path d="M92,9744 76,0696
L93,0221 76,0220
" />
<path d="M93,0221 76,0220
L93,1173 75,9744
" />
<path d="M93,1173 75,9744
L93,2125 75,9744
" />
<path d="M93,2125 75,9744
L93,3554 76,0220
" />
<path d="M93,3554 76,0220
L93,9268 76,5935
" />
<path d="M93,9268 76,5935
L93,9268 75,9744
" />
</g><g transform="rotate(-90,000000 123,8250 86,9950)">
<text x="123,8250" y="87,4950"
textLength="1,2024" font-size="1,3333" lengthAdjust="spacingAndGlyphs"
text-anchor="start" opacity="0" stroke-opacity="0">1</text>
</g>
<g class="stroked-text"><desc>1</desc>
<path d="M124,2798 86,1344
L124,2798 86,7058
" />
<path d="M124,2798 86,4201
L123,2798 86,4201
" />
<path d="M123,2798 86,4201
L123,4227 86,5154
" />
<path d="M123,4227 86,5154
L123,5179 86,6106
" />
<path d="M123,5179 86,6106
L123,5655 86,7058
" />
</g><g transform="rotate(-90,000000 139,0650 83,3120)">
<text x="139,0650" y="83,8120"
textLength="1,2024" font-size="1,3333" lengthAdjust="spacingAndGlyphs"
text-anchor="end" opacity="0" stroke-opacity="0">2</text>
</g>
<g class="stroked-text"><desc>2</desc>
<path d="M138,6151 84,1726
L138,5674 84,1250
" />
<path d="M138,5674 84,1250
L138,5198 84,0297
" />
<path d="M138,5198 84,0297
L138,5198 83,7916
" />
<path d="M138,5198 83,7916
L138,5674 83,6964
" />
<path d="M138,5674 83,6964
L138,6151 83,6488
" />
<path d="M138,6151 83,6488
L138,7103 83,6012
" />
<path d="M138,7103 83,6012
L138,8055 83,6012
" />
<path d="M138,8055 83,6012
L138,9484 83,6488
" />
<path d="M138,9484 83,6488
L139,5198 84,2202
" />
<path d="M139,5198 84,2202
L139,5198 83,6012
" />
</g><g transform="rotate(-90,000000 133,9850 86,9950)">
<text x="133,9850" y="87,4950"
textLength="1,2024" font-size="1,3333" lengthAdjust="spacingAndGlyphs"
text-anchor="start" opacity="0" stroke-opacity="0">1</text>
</g>
<g class="stroked-text"><desc>1</desc>
<path d="M134,4398 86,1344
L134,4398 86,7058
" />
<path d="M134,4398 86,4201
L133,4398 86,4201
" />
<path d="M133,4398 86,4201
L133,5827 86,5154
" />
<path d="M133,5827 86,5154
L133,6779 86,6106
" />
<path d="M133,6779 86,6106
L133,7255 86,7058
" />
</g><g transform="rotate(-90,000000 93,3450 81,5340)">
<text x="93,3450" y="82,0340"
textLength="1,2024" font-size="1,3333" lengthAdjust="spacingAndGlyphs"
text-anchor="start" opacity="0" stroke-opacity="0">2</text>
</g>
<g class="stroked-text"><desc>2</desc>
<path d="M92,8951 81,2448
L92,8474 81,1972
" />
<path d="M92,8474 81,1972
L92,7998 81,1020
" />
<path d="M92,7998 81,1020
L92,7998 80,8639
" />
<path d="M92,7998 80,8639
L92,8474 80,7686
" />
<path d="M92,8474 80,7686
L92,8951 80,7210
" />
<path d="M92,8951 80,7210
L92,9903 80,6734
" />
<path d="M92,9903 80,6734
L93,0855 80,6734
" />
<path d="M93,0855 80,6734
L93,2284 80,7210
" />
<path d="M93,2284 80,7210
L93,7998 81,2925
" />
<path d="M93,7998 81,2925
L93,7998 80,6734
" />
</g><g transform="rotate(-90,000000 93,3450 89,7890)">
<text x="93,3450" y="90,2890"
textLength="1,2024" font-size="1,3333" lengthAdjust="spacingAndGlyphs"
text-anchor="start" opacity="0" stroke-opacity="0">1</text>
</g>
<g class="stroked-text"><desc>1</desc>
<path d="M93,7998 88,9284
L93,7998 89,4998
" />
<path d="M93,7998 89,2141
L92,7998 89,2141
" />
<path d="M92,7998 89,2141
L92,9427 89,3094
" />
<path d="M92,9427 89,3094
L93,0379 89,4046
" />
<path d="M93,0379 89,4046
L93,0855 89,4998
" />
</g><g transform="rotate(-90,000000 108,5850 84,4550)">
<text x="108,5850" y="84,9550"
textLength="1,2024" font-size="1,3333" lengthAdjust="spacingAndGlyphs"
text-anchor="start" opacity="0" stroke-opacity="0">2</text>
</g>
<g class="stroked-text"><desc>2</desc>
<path d="M108,1351 84,1658
L108,0874 84,1182
" />
<path d="M108,0874 84,1182
L108,0398 84,0230
" />
<path d="M108,0398 84,0230
L108,0398 83,7849
" />
<path d="M108,0398 83,7849
L108,0874 83,6896
" />
<path d="M108,0874 83,6896
L108,1351 83,6420
" />
<path d="M108,1351 83,6420
L108,2303 83,5944
" />
<path d="M108,2303 83,5944
L108,3255 83,5944
" />
<path d="M108,3255 83,5944
L108,4684 83,6420
" />
<path d="M108,4684 83,6420
L109,0398 84,2135
" />
<path d="M109,0398 84,2135
L109,0398 83,5944
" />
</g><g transform="rotate(-90,000000 103,5050 84,4550)">
<text x="103,5050" y="84,9550"
textLength="1,2024" font-size="1,3333" lengthAdjust="spacingAndGlyphs"
text-anchor="start" opacity="0" stroke-opacity="0">2</text>
</g>
<g class="stroked-text"><desc>2</desc>
<path d="M103,0551 84,1658
L103,0074 84,1182
" />
<path d="M103,0074 84,1182
L102,9598 84,0230
" />
<path d="M102,9598 84,0230
L102,9598 83,7849
" />
<path d="M102,9598 83,7849
L103,0074 83,6896
" />
<path d="M103,0074 83,6896
L103,0551 83,6420
" />
<path d="M103,0551 83,6420
L103,1503 83,5944
" />
<path d="M103,1503 83,5944
L103,2455 83,5944
" />
<path d="M103,2455 83,5944
L103,3884 83,6420
" />
<path d="M103,3884 83,6420
L103,9598 84,2135
" />
<path d="M103,9598 84,2135
L103,9598 83,5944
" />
</g><g transform="rotate(-90,000000 103,5050 86,9950)">
<text x="103,5050" y="87,4950"
textLength="1,2024" font-size="1,3333" lengthAdjust="spacingAndGlyphs"
text-anchor="start" opacity="0" stroke-opacity="0">1</text>
</g>
<g class="stroked-text"><desc>1</desc>
<path d="M103,9598 86,1344
L103,9598 86,7058
" />
<path d="M103,9598 86,4201
L102,9598 86,4201
" />
<path d="M102,9598 86,4201
L103,1027 86,5154
" />
<path d="M103,1027 86,5154
L103,1979 86,6106
" />
<path d="M103,1979 86,6106
L103,2455 86,7058
" />
</g><g transform="rotate(-90,000000 147,3200 81,0260)">
<text x="147,3200" y="81,5260"
textLength="1,2024" font-size="1,3333" lengthAdjust="spacingAndGlyphs"
text-anchor="start" opacity="0" stroke-opacity="0">2</text>
</g>
<g class="stroked-text"><desc>2</desc>
<path d="M146,8701 80,7368
L146,8224 80,6892
" />
<path d="M146,8224 80,6892
L146,7748 80,5940
" />
<path d="M146,7748 80,5940
L146,7748 80,3559
" />
<path d="M146,7748 80,3559
L146,8224 80,2606
" />
<path d="M146,8224 80,2606
L146,8701 80,2130
" />
<path d="M146,8701 80,2130
L146,9653 80,1654
" />
<path d="M146,9653 80,1654
L147,0605 80,1654
" />
<path d="M147,0605 80,1654
L147,2034 80,2130
" />
<path d="M147,2034 80,2130
L147,7748 80,7845
" />
<path d="M147,7748 80,7845
L147,7748 80,1654
" />
</g><g transform="rotate(-90,000000 98,4250 84,4550)">
<text x="98,4250" y="84,9550"
textLength="1,2024" font-size="1,3333" lengthAdjust="spacingAndGlyphs"
text-anchor="start" opacity="0" stroke-opacity="0">2</text>
</g>
<g class="stroked-text"><desc>2</desc>
<path d="M97,9751 84,1658
L97,9274 84,1182
" />
<path d="M97,9274 84,1182
L97,8798 84,0230
" />
<path d="M97,8798 84,0230
L97,8798 83,7849
" />
<path d="M97,8798 83,7849
L97,9274 83,6896
" />
<path d="M97,9274 83,6896
L97,9751 83,6420
" />
<path d="M97,9751 83,6420
L98,0703 83,5944
" />
<path d="M98,0703 83,5944
L98,1655 83,5944
" />
<path d="M98,1655 83,5944
L98,3084 83,6420
" />
<path d="M98,3084 83,6420
L98,8798 84,2135
" />
<path d="M98,8798 84,2135
L98,8798 83,5944
" />
</g><g transform="rotate(-90,000000 128,9050 86,9950)">
<text x="128,9050" y="87,4950"
textLength="1,2024" font-size="1,3333" lengthAdjust="spacingAndGlyphs"
text-anchor="start" opacity="0" stroke-opacity="0">1</text>
</g>
<g class="stroked-text"><desc>1</desc>
<path d="M129,3598 86,1344
L129,3598 86,7058
" />
<path d="M129,3598 86,4201
L128,3598 86,4201
" />
<path d="M128,3598 86,4201
L128,5027 86,5154
" />
<path d="M128,5027 86,5154
L128,5979 86,6106
" />
<path d="M128,5979 86,6106
L128,6455 86,7058
" />
</g><g transform="rotate(-90,000000 93,3450 94,3610)">
<text x="93,3450" y="94,8610"
textLength="1,2024" font-size="1,3333" lengthAdjust="spacingAndGlyphs"
text-anchor="start" opacity="0" stroke-opacity="0">1</text>
</g>
<g class="stroked-text"><desc>1</desc>
<path d="M93,7998 93,5004
L93,7998 94,0718
" />
<path d="M93,7998 93,7861
L92,7998 93,7861
" />
<path d="M92,7998 93,7861
L92,9427 93,8814
" />
<path d="M92,9427 93,8814
L93,0379 93,9766
" />
<path d="M93,0379 93,9766
L93,0855 94,0718
" />
</g><g transform="rotate(-90,000000 147,4470 94,1070)">
<text x="147,4470" y="94,6070"
textLength="1,2024" font-size="1,3333" lengthAdjust="spacingAndGlyphs"
text-anchor="start" opacity="0" stroke-opacity="0">1</text>
</g>
<g class="stroked-text"><desc>1</desc>
<path d="M147,9018 93,2464
L147,9018 93,8178
" />
<path d="M147,9018 93,5321
L146,9018 93,5321
" />
<path d="M146,9018 93,5321
L147,0447 93,6274
" />
<path d="M147,0447 93,6274
L147,1399 93,7226
" />
<path d="M147,1399 93,7226
L147,1875 93,8178
" />
</g><g transform="rotate(-90,000000 128,9050 84,4550)">
<text x="128,9050" y="84,9550"
textLength="1,2024" font-size="1,3333" lengthAdjust="spacingAndGlyphs"
text-anchor="start" opacity="0" stroke-opacity="0">2</text>
</g>
<g class="stroked-text"><desc>2</desc>
<path d="M128,4551 84,1658
L128,4074 84,1182
" />
<path d="M128,4074 84,1182
L128,3598 84,0230
" />
<path d="M128,3598 84,0230
L128,3598 83,7849
" />
<path d="M128,3598 83,7849
L128,4074 83,6896
" />
<path d="M128,4074 83,6896
L128,4551 83,6420
" />
<path d="M128,4551 83,6420
L128,5503 83,5944
" />
<path d="M128,5503 83,5944
L128,6455 83,5944
" />
<path d="M128,6455 83,5944
L128,7884 83,6420
" />
<path d="M128,7884 83,6420
L129,3598 84,2135
" />
<path d="M129,3598 84,2135
L129,3598 83,5944
" />
</g><g transform="rotate(-90,000000 113,6650 84,4550)">
<text x="113,6650" y="84,9550"
textLength="1,2024" font-size="1,3333" lengthAdjust="spacingAndGlyphs"
text-anchor="start" opacity="0" stroke-opacity="0">2</text>
</g>
<g class="stroked-text"><desc>2</desc>
<path d="M113,2151 84,1658
L113,1674 84,1182
" />
<path d="M113,1674 84,1182
L113,1198 84,0230
" />
<path d="M113,1198 84,0230
L113,1198 83,7849
" />
<path d="M113,1198 83,7849
L113,1674 83,6896
" />
<path d="M113,1674 83,6896
L113,2151 83,6420
" />
<path d="M113,2151 83,6420
L113,3103 83,5944
" />
<path d="M113,3103 83,5944
L113,4055 83,5944
" />
<path d="M113,4055 83,5944
L113,5484 83,6420
" />
<path d="M113,5484 83,6420
L114,1198 84,2135
" />
<path d="M114,1198 84,2135
L114,1198 83,5944
" />
</g><g transform="rotate(-90,000000 113,6650 86,9950)">
<text x="113,6650" y="87,4950"
textLength="1,2024" font-size="1,3333" lengthAdjust="spacingAndGlyphs"
text-anchor="start" opacity="0" stroke-opacity="0">1</text>
</g>
<g class="stroked-text"><desc>1</desc>
<path d="M114,1198 86,1344
L114,1198 86,7058
" />
<path d="M114,1198 86,4201
L113,1198 86,4201
" />
<path d="M113,1198 86,4201
L113,2627 86,5154
" />
<path d="M113,2627 86,5154
L113,3579 86,6106
" />
<path d="M113,3579 86,6106
L113,4055 86,7058
" />
</g><g transform="rotate(-90,000000 144,1450 84,4550)">
<text x="144,1450" y="84,9550"
textLength="1,2024" font-size="1,3333" lengthAdjust="spacingAndGlyphs"
text-anchor="start" opacity="0" stroke-opacity="0">2</text>
</g>
<g class="stroked-text"><desc>2</desc>
<path d="M143,6951 84,1658
L143,6474 84,1182
" />
<path d="M143,6474 84,1182
L143,5998 84,0230
" />
<path d="M143,5998 84,0230
L143,5998 83,7849
" />
<path d="M143,5998 83,7849
L143,6474 83,6896
" />
<path d="M143,6474 83,6896
L143,6951 83,6420
" />
<path d="M143,6951 83,6420
L143,7903 83,5944
" />
<path d="M143,7903 83,5944
L143,8855 83,5944
" />
<path d="M143,8855 83,5944
L144,0284 83,6420
" />
<path d="M144,0284 83,6420
L144,5998 84,2135
" />
<path d="M144,5998 84,2135
L144,5998 83,5944
" />
</g><g transform="rotate(-90,000000 139,0650 85,8520)">
<text x="139,0650" y="86,3520"
textLength="1,2024" font-size="1,3333" lengthAdjust="spacingAndGlyphs"
text-anchor="end" opacity="0" stroke-opacity="0">1</text>
</g>
<g class="stroked-text"><desc>1</desc>
<path d="M139,5198 86,1412
L139,5198 86,7126
" />
<path d="M139,5198 86,4269
L138,5198 86,4269
" />
<path d="M138,5198 86,4269
L138,6627 86,5221
" />
<path d="M138,6627 86,5221
L138,7579 86,6174
" />
<path d="M138,7579 86,6174
L138,8055 86,7126
" />
</g><g transform="rotate(-90,000000 123,8250 84,4550)">
<text x="123,8250" y="84,9550"
textLength="1,2024" font-size="1,3333" lengthAdjust="spacingAndGlyphs"
text-anchor="start" opacity="0" stroke-opacity="0">2</text>
</g>
<g class="stroked-text"><desc>2</desc>
<path d="M123,3751 84,1658
L123,3274 84,1182
" />
<path d="M123,3274 84,1182
L123,2798 84,0230
" />
<path d="M123,2798 84,0230
L123,2798 83,7849
" />
<path d="M123,2798 83,7849
L123,3274 83,6896
" />
<path d="M123,3274 83,6896
L123,3751 83,6420
" />
<path d="M123,3751 83,6420
L123,4703 83,5944
" />
<path d="M123,4703 83,5944
L123,5655 83,5944
" />
<path d="M123,5655 83,5944
L123,7084 83,6420
" />
<path d="M123,7084 83,6420
L124,2798 84,2135
" />
<path d="M124,2798 84,2135
L124,2798 83,5944
" />
</g><g transform="rotate(-90,000000 144,1450 86,9950)">
<text x="144,1450" y="87,4950"
textLength="1,2024" font-size="1,3333" lengthAdjust="spacingAndGlyphs"
text-anchor="start" opacity="0" stroke-opacity="0">1</text>
</g>
<g class="stroked-text"><desc>1</desc>
<path d="M144,5998 86,1344
L144,5998 86,7058
" />
<path d="M144,5998 86,4201
L143,5998 86,4201
" />
<path d="M143,5998 86,4201
L143,7427 86,5154
" />
<path d="M143,7427 86,5154
L143,8379 86,6106
" />
<path d="M143,8379 86,6106
L143,8855 86,7058
" />
</g><g transform="rotate(-90,000000 118,7450 86,9950)">
<text x="118,7450" y="87,4950"
textLength="1,2024" font-size="1,3333" lengthAdjust="spacingAndGlyphs"
text-anchor="start" opacity="0" stroke-opacity="0">1</text>
</g>
<g class="stroked-text"><desc>1</desc>
<path d="M119,1998 86,1344
L119,1998 86,7058
" />
<path d="M119,1998 86,4201
L118,1998 86,4201
" />
<path d="M118,1998 86,4201
L118,3427 86,5154
" />
<path d="M118,3427 86,5154
L118,4379 86,6106
" />
<path d="M118,4379 86,6106
L118,4855 86,7058
" />
</g></g>
<g style="fill:none; 
stroke:#008484; stroke-width:0,1200; stroke-opacity:1; 
stroke-linecap:round; stroke-linejoin:round;">
<path d="M132,0500 74,7900
L134,6500 74,7900
" />
<path d="M132,0500 82,6900
L132,0500 74,7900
" />
<path d="M134,6500 74,7900
L134,6500 82,6900
" />
<path d="M134,6500 82,6900
L132,0500 82,6900
" />
<path d="M96,4900 87,4900
L99,0900 87,4900
" />
<path d="M96,4900 95,3900
L96,4900 87,4900
" />
<path d="M99,0900 87,4900
L99,0900 95,3900
" />
<path d="M99,0900 95,3900
L96,4900 95,3900
" />
<path d="M148,4500 74,7730
L156,3500 74,7730
" />
<path d="M148,4500 77,3730
L148,4500 74,7730
" />
<path d="M156,3500 74,7730
L156,3500 77,3730
" />
<path d="M156,3500 77,3730
L148,4500 77,3730
" />
<path d="M148,4500 87,8540
L156,3500 87,8540
" />
<path d="M148,4500 90,4540
L148,4500 87,8540
" />
<path d="M156,3500 87,8540
L156,3500 90,4540
" />
<path d="M156,3500 90,4540
L148,4500 90,4540
" />
<path d="M116,8100 74,7900
L119,4100 74,7900
" />
<path d="M116,8100 82,6900
L116,8100 74,7900
" />
<path d="M119,4100 74,7900
L119,4100 82,6900
" />
<path d="M119,4100 82,6900
L116,8100 82,6900
" />
<path d="M106,6500 87,4900
L109,2500 87,4900
" />
<path d="M106,6500 95,3900
L106,6500 87,4900
" />
<path d="M109,2500 87,4900
L109,2500 95,3900
" />
<path d="M109,2500 95,3900
L106,6500 95,3900
" />
<path d="M84,3150 74,9000
L92,2150 74,9000
" />
<path d="M84,3150 77,5000
L84,3150 74,9000
" />
<path d="M92,2150 74,9000
L92,2150 77,5000
" />
<path d="M92,2150 77,5000
L84,3150 77,5000
" />
<path d="M121,8900 87,4900
L124,4900 87,4900
" />
<path d="M121,8900 95,3900
L121,8900 87,4900
" />
<path d="M124,4900 87,4900
L124,4900 95,3900
" />
<path d="M124,4900 95,3900
L121,8900 95,3900
" />
<path d="M137,1300 74,7900
L139,7300 74,7900
" />
<path d="M137,1300 82,6900
L137,1300 74,7900
" />
<path d="M139,7300 74,7900
L139,7300 82,6900
" />
<path d="M139,7300 82,6900
L137,1300 82,6900
" />
<path d="M132,0500 87,4900
L134,6500 87,4900
" />
<path d="M132,0500 95,3900
L132,0500 87,4900
" />
<path d="M134,6500 87,4900
L134,6500 95,3900
" />
<path d="M134,6500 95,3900
L132,0500 95,3900
" />
<path d="M84,3150 79,7260
L92,2150 79,7260
" />
<path d="M84,3150 82,3260
L84,3150 79,7260
" />
<path d="M92,2150 79,7260
L92,2150 82,3260
" />
<path d="M92,2150 82,3260
L84,3150 82,3260
" />
<path d="M84,3150 87,8540
L92,2150 87,8540
" />
<path d="M84,3150 90,4540
L84,3150 87,8540
" />
<path d="M92,2150 87,8540
L92,2150 90,4540
" />
<path d="M92,2150 90,4540
L84,3150 90,4540
" />
<path d="M106,6500 74,7900
L109,2500 74,7900
" />
<path d="M106,6500 82,6900
L106,6500 74,7900
" />
<path d="M109,2500 74,7900
L109,2500 82,6900
" />
<path d="M109,2500 82,6900
L106,6500 82,6900
" />
<path d="M101,5700 74,7900
L104,1700 74,7900
" />
<path d="M101,5700 82,6900
L101,5700 74,7900
" />
<path d="M104,1700 74,7900
L104,1700 82,6900
" />
<path d="M104,1700 82,6900
L101,5700 82,6900
" />
<path d="M101,5700 87,4900
L104,1700 87,4900
" />
<path d="M101,5700 95,3900
L101,5700 87,4900
" />
<path d="M104,1700 87,4900
L104,1700 95,3900
" />
<path d="M104,1700 95,3900
L101,5700 95,3900
" />
<path d="M148,4500 79,7260
L156,3500 79,7260
" />
<path d="M148,4500 82,3260
L148,4500 79,7260
" />
<path d="M156,3500 79,7260
L156,3500 82,3260
" />
<path d="M156,3500 82,3260
L148,4500 82,3260
" />
<path d="M96,4900 74,7900
L99,0900 74,7900
" />
<path d="M96,4900 82,6900
L96,4900 74,7900
" />
<path d="M99,0900 74,7900
L99,0900 82,6900
" />
<path d="M99,0900 82,6900
L96,4900 82,6900
" />
<path d="M126,9700 87,4900
L129,5700 87,4900
" />
<path d="M126,9700 95,3900
L126,9700 87,4900
" />
<path d="M129,5700 87,4900
L129,5700 95,3900
" />
<path d="M129,5700 95,3900
L126,9700 95,3900
" />
<path d="M84,3150 92,6800
L92,2150 92,6800
" />
<path d="M84,3150 95,2800
L84,3150 92,6800
" />
<path d="M92,2150 92,6800
L92,2150 95,2800
" />
<path d="M92,2150 95,2800
L84,3150 95,2800
" />
<path d="M148,4500 92,8070
L156,3500 92,8070
" />
<path d="M148,4500 95,4070
L148,4500 92,8070
" />
<path d="M156,3500 92,8070
L156,3500 95,4070
" />
<path d="M156,3500 95,4070
L148,4500 95,4070
" />
<path d="M126,9700 74,7900
L129,5700 74,7900
" />
<path d="M126,9700 82,6900
L126,9700 74,7900
" />
<path d="M129,5700 74,7900
L129,5700 82,6900
" />
<path d="M129,5700 82,6900
L126,9700 82,6900
" />
<path d="M111,7300 74,7900
L114,3300 74,7900
" />
<path d="M111,7300 82,6900
L111,7300 74,7900
" />
<path d="M114,3300 74,7900
L114,3300 82,6900
" />
<path d="M114,3300 82,6900
L111,7300 82,6900
" />
<path d="M111,7300 87,4900
L114,3300 87,4900
" />
<path d="M111,7300 95,3900
L111,7300 87,4900
" />
<path d="M114,3300 87,4900
L114,3300 95,3900
" />
<path d="M114,3300 95,3900
L111,7300 95,3900
" />
<path d="M142,2100 74,7900
L144,8100 74,7900
" />
<path d="M142,2100 82,6900
L142,2100 74,7900
" />
<path d="M144,8100 74,7900
L144,8100 82,6900
" />
<path d="M144,8100 82,6900
L142,2100 82,6900
" />
<path d="M137,0030 87,4900
L139,6030 87,4900
" />
<path d="M137,0030 95,3900
L137,0030 87,4900
" />
<path d="M139,6030 87,4900
L139,6030 95,3900
" />
<path d="M139,6030 95,3900
L137,0030 95,3900
" />
<path d="M121,8900 74,7900
L124,4900 74,7900
" />
<path d="M121,8900 82,6900
L121,8900 74,7900
" />
<path d="M124,4900 74,7900
L124,4900 82,6900
" />
<path d="M124,4900 82,6900
L121,8900 82,6900
" />
<path d="M142,2100 87,4900
L144,8100 87,4900
" />
<path d="M142,2100 95,3900
L142,2100 87,4900
" />
<path d="M144,8100 87,4900
L144,8100 95,3900
" />
<path d="M144,8100 95,3900
L142,2100 95,3900
" />
<path d="M116,8100 87,4900
L119,4100 87,4900
" />
<path d="M116,8100 95,3900
L116,8100 87,4900
" />
<path d="M119,4100 87,4900
L119,4100 95,3900
" />
<path d="M119,4100 95,3900
L116,8100 95,3900
" />
</g>
<g style="fill:#008484; fill-opacity:1,0000; stroke:none;">
<circle cx="86,9950" cy="85,0900" r="1,0500" /> 
</g>
<g style="fill:#008484; fill-opacity:1,0000; stroke:none;">
<circle cx="153,0350" cy="85,0900" r="1,0500" /> 
</g>
<g style="fill:none; 
stroke:#C2C2C2; stroke-width:0,0500; stroke-opacity:1; 
stroke-linecap:round; stroke-linejoin:round;">
<path d="M131,7500 82,9900
L131,7500 74,4900
" />
<path d="M131,7500 82,9900
L134,9500 82,9900
" />
<path d="M134,9500 74,4900
L131,7500 74,4900
" />
<path d="M134,9500 74,4900
L134,9500 82,9900
" />
<circle cx="86,9950" cy="85,0900" r="2,3500" /> 
<path d="M96,1900 95,6900
L96,1900 87,1900
" />
<path d="M96,1900 95,6900
L99,3900 95,6900
" />
<path d="M99,3900 87,1900
L96,1900 87,1900
" />
<path d="M99,3900 87,1900
L99,3900 95,6900
" />
<path d="M148,1500 74,4730
L148,1500 77,6730
" />
<path d="M148,1500 74,4730
L156,6500 74,4730
" />
<path d="M156,6500 77,6730
L148,1500 77,6730
" />
<path d="M156,6500 77,6730
L156,6500 74,4730
" />
<path d="M148,1500 87,5540
L148,1500 90,7540
" />
<path d="M148,1500 87,5540
L156,6500 87,5540
" />
<path d="M156,6500 90,7540
L148,1500 90,7540
" />
<path d="M156,6500 90,7540
L156,6500 87,5540
" />
<path d="M116,5100 82,9900
L116,5100 74,4900
" />
<path d="M116,5100 82,9900
L119,7100 82,9900
" />
<path d="M119,7100 74,4900
L116,5100 74,4900
" />
<path d="M119,7100 74,4900
L119,7100 82,9900
" />
<path d="M106,3500 95,6900
L106,3500 87,1900
" />
<path d="M106,3500 95,6900
L109,5500 95,6900
" />
<path d="M109,5500 87,1900
L106,3500 87,1900
" />
<path d="M109,5500 87,1900
L109,5500 95,6900
" />
<path d="M84,0150 74,6000
L84,0150 77,8000
" />
<path d="M84,0150 74,6000
L92,5150 74,6000
" />
<path d="M92,5150 77,8000
L84,0150 77,8000
" />
<path d="M92,5150 77,8000
L92,5150 74,6000
" />
<path d="M121,5900 95,6900
L121,5900 87,1900
" />
<path d="M121,5900 95,6900
L124,7900 95,6900
" />
<path d="M124,7900 87,1900
L121,5900 87,1900
" />
<path d="M124,7900 87,1900
L124,7900 95,6900
" />
<path d="M136,8300 82,9900
L136,8300 74,4900
" />
<path d="M136,8300 82,9900
L140,0300 82,9900
" />
<path d="M140,0300 74,4900
L136,8300 74,4900
" />
<path d="M140,0300 74,4900
L140,0300 82,9900
" />
<path d="M131,7500 95,6900
L131,7500 87,1900
" />
<path d="M131,7500 95,6900
L134,9500 95,6900
" />
<path d="M134,9500 87,1900
L131,7500 87,1900
" />
<path d="M134,9500 87,1900
L134,9500 95,6900
" />
<path d="M84,0150 79,4260
L84,0150 82,6260
" />
<path d="M84,0150 79,4260
L92,5150 79,4260
" />
<path d="M92,5150 82,6260
L84,0150 82,6260
" />
<path d="M92,5150 82,6260
L92,5150 79,4260
" />
<path d="M84,0150 87,5540
L84,0150 90,7540
" />
<path d="M84,0150 87,5540
L92,5150 87,5540
" />
<path d="M92,5150 90,7540
L84,0150 90,7540
" />
<path d="M92,5150 90,7540
L92,5150 87,5540
" />
<path d="M106,3500 82,9900
L106,3500 74,4900
" />
<path d="M106,3500 82,9900
L109,5500 82,9900
" />
<path d="M109,5500 74,4900
L106,3500 74,4900
" />
<path d="M109,5500 74,4900
L109,5500 82,9900
" />
<path d="M101,2700 82,9900
L101,2700 74,4900
" />
<path d="M101,2700 82,9900
L104,4700 82,9900
" />
<path d="M104,4700 74,4900
L101,2700 74,4900
" />
<path d="M104,4700 74,4900
L104,4700 82,9900
" />
<path d="M101,2700 95,6900
L101,2700 87,1900
" />
<path d="M101,2700 95,6900
L104,4700 95,6900
" />
<path d="M104,4700 87,1900
L101,2700 87,1900
" />
<path d="M104,4700 87,1900
L104,4700 95,6900
" />
<path d="M148,1500 79,4260
L148,1500 82,6260
" />
<path d="M148,1500 79,4260
L156,6500 79,4260
" />
<path d="M156,6500 82,6260
L148,1500 82,6260
" />
<path d="M156,6500 82,6260
L156,6500 79,4260
" />
<path d="M96,1900 82,9900
L96,1900 74,4900
" />
<path d="M96,1900 82,9900
L99,3900 82,9900
" />
<path d="M99,3900 74,4900
L96,1900 74,4900
" />
<path d="M99,3900 74,4900
L99,3900 82,9900
" />
<path d="M126,6700 95,6900
L126,6700 87,1900
" />
<path d="M126,6700 95,6900
L129,8700 95,6900
" />
<path d="M129,8700 87,1900
L126,6700 87,1900
" />
<path d="M129,8700 87,1900
L129,8700 95,6900
" />
<path d="M84,0150 92,3800
L84,0150 95,5800
" />
<path d="M84,0150 92,3800
L92,5150 92,3800
" />
<path d="M92,5150 95,5800
L84,0150 95,5800
" />
<path d="M92,5150 95,5800
L92,5150 92,3800
" />
<path d="M148,1500 92,5070
L148,1500 95,7070
" />
<path d="M148,1500 92,5070
L156,6500 92,5070
" />
<path d="M156,6500 95,7070
L148,1500 95,7070
" />
<path d="M156,6500 95,7070
L156,6500 92,5070
" />
<path d="M126,6700 82,9900
L126,6700 74,4900
" />
<path d="M126,6700 82,9900
L129,8700 82,9900
" />
<path d="M129,8700 74,4900
L126,6700 74,4900
" />
<path d="M129,8700 74,4900
L129,8700 82,9900
" />
<path d="M111,4300 82,9900
L111,4300 74,4900
" />
<path d="M111,4300 82,9900
L114,6300 82,9900
" />
<path d="M114,6300 74,4900
L111,4300 74,4900
" />
<path d="M114,6300 74,4900
L114,6300 82,9900
" />
<path d="M111,4300 95,6900
L111,4300 87,1900
" />
<path d="M111,4300 95,6900
L114,6300 95,6900
" />
<path d="M114,6300 87,1900
L111,4300 87,1900
" />
<path d="M114,6300 87,1900
L114,6300 95,6900
" />
<path d="M141,9100 82,9900
L141,9100 74,4900
" />
<path d="M141,9100 82,9900
L145,1100 82,9900
" />
<path d="M145,1100 74,4900
L141,9100 74,4900
" />
<path d="M145,1100 74,4900
L145,1100 82,9900
" />
<path d="M136,7030 95,6900
L136,7030 87,1900
" />
<path d="M136,7030 95,6900
L139,9030 95,6900
" />
<path d="M139,9030 87,1900
L136,7030 87,1900
" />
<path d="M139,9030 87,1900
L139,9030 95,6900
" />
<path d="M121,5900 82,9900
L121,5900 74,4900
" />
<path d="M121,5900 82,9900
L124,7900 82,9900
" />
<path d="M124,7900 74,4900
L121,5900 74,4900
" />
<path d="M124,7900 74,4900
L124,7900 82,9900
" />
<path d="M141,9100 95,6900
L141,9100 87,1900
" />
<path d="M141,9100 95,6900
L145,1100 95,6900
" />
<path d="M145,1100 87,1900
L141,9100 87,1900
" />
<path d="M145,1100 87,1900
L145,1100 95,6900
" />
<path d="M116,5100 95,6900
L116,5100 87,1900
" />
<path d="M116,5100 95,6900
L119,7100 95,6900
" />
<path d="M119,7100 87,1900
L116,5100 87,1900
" />
<path d="M119,7100 87,1900
L119,7100 95,6900
" />
<circle cx="153,0350" cy="85,0900" r="2,3500" /> 
</g>
<g style="fill:#C2C2C2; fill-opacity:1,0000; stroke:none;">
<circle cx="86,9950" cy="85,0900" r="1,0500" /> 
</g>
<g style="fill:#C2C2C2; fill-opacity:1,0000; stroke:none;">
<circle cx="153,0350" cy="85,0900" r="1,0500" /> 
</g>
<g style="fill:none; 
stroke:#C2C200; stroke-width:0,1000; stroke-opacity:1; 
stroke-linecap:round; stroke-linejoin:round;">
<path d="M156,8450 74,2950
L156,8450 95,8850
" />
<path d="M156,8450 95,8850
L83,8200 95,8850
" />
<path d="M83,8200 95,8850
L83,8200 74,2950
" />
<path d="M83,8200 74,2950
L156,8450 74,2950
" />
</g>
<g style="fill:#C2C200; fill-opacity:1,0000; stroke:none;">
<circle cx="86,9950" cy="85,0900" r="1,0500" /> 
</g>
<g style="fill:#C2C200; fill-opacity:1,0000; stroke:none;">
<circle cx="153,0350" cy="85,0900" r="1,0500" /> 
</g>
<g style="fill:#FFFFFF; fill-opacity:1,0000; stroke:none;">
<circle cx="86,9950" cy="85,0900" r="1,0500" /> 
</g>
<g style="fill:#FFFFFF; fill-opacity:1,0000; stroke:none;">
<circle cx="153,0350" cy="85,0900" r="1,0500" /> 
</g> 
</svg>
