<?xml version="1.0" standalone="no"?>
 <!DOCTYPE svg PUBLIC "-//W3C//DTD SVG 1.1//EN" 
 "http://www.w3.org/Graphics/SVG/1.1/DTD/svg11.dtd"> 
<svg
  xmlns:svg="http://www.w3.org/2000/svg"
  xmlns="http://www.w3.org/2000/svg"
  xmlns:xlink="http://www.w3.org/1999/xlink"
  version="1.1"
  width="70.8914mm" height="21.6662mm" viewBox="0.0000 0.0000 70.8914 21.6662">
<title>SVG Image created as Weichenanschluss-LargePad.kicad_pcb_F.svg date 2024/01/24 20:20:45 </title>
  <desc>Image generated by PCBNEW </desc>
<g style="fill:#000000; fill-opacity:1.0000;stroke:#000000; stroke-opacity:1.0000;
stroke-linecap:round; stroke-linejoin:round;"
 transform="translate(0 0) scale(1 1)">
</g>
<g style="fill:#000000; fill-opacity:0.0; 
stroke:#000000; stroke-width:0.0000; stroke-opacity:1; 
stroke-linecap:round; stroke-linejoin:round;">
<g >
</g>
<g style="fill:#840084; fill-opacity:0.0; 
stroke:#840084; stroke-width:0.0000; stroke-opacity:1; 
stroke-linecap:round; stroke-linejoin:round;">
</g>
<g style="fill:#840084; fill-opacity:0.0; 
stroke:#840084; stroke-width:0.0000; stroke-opacity:1; 
stroke-linecap:round; stroke-linejoin:round;">
</g>
<g style="fill:#840084; fill-opacity:1.0000; 
stroke:#840084; stroke-width:0.0000; stroke-opacity:1; 
stroke-linecap:round; stroke-linejoin:round;">
<path style="fill:#840084; fill-opacity:1.0000; 
stroke:#840084; stroke-width:0.0000; stroke-opacity:1; 
stroke-linecap:round; stroke-linejoin:round;fill-rule:evenodd;"
d="M 26.8900,11.5400
29.0900,11.5400
29.0900,19.0400
26.8900,19.0400
Z" /> 
</g>
<g >
</g>
<g style="fill:#840084; fill-opacity:1.0000; 
stroke:#840084; stroke-width:0.0000; stroke-opacity:1; 
stroke-linecap:round; stroke-linejoin:round;">
<path style="fill:#840084; fill-opacity:1.0000; 
stroke:#840084; stroke-width:0.0000; stroke-opacity:1; 
stroke-linecap:round; stroke-linejoin:round;fill-rule:evenodd;"
d="M 62.6575,14.1675
62.6575,11.9675
70.1575,11.9675
70.1575,14.1675
Z" /> 
</g>
<g >
</g>
<g style="fill:#840084; fill-opacity:1.0000; 
stroke:#840084; stroke-width:0.0000; stroke-opacity:1; 
stroke-linecap:round; stroke-linejoin:round;">
<circle cx="23.8625" cy="15.9250" r="1.0500" /> 
</g>
<g style="fill:#840084; fill-opacity:1.0000; 
stroke:#840084; stroke-width:0.0212; stroke-opacity:1; 
stroke-linecap:round; stroke-linejoin:round;">
</g>
<g >
</g>
<g style="fill:#840084; fill-opacity:1.0000; 
stroke:#840084; stroke-width:0.0212; stroke-opacity:1; 
stroke-linecap:round; stroke-linejoin:round;">
</g>
<g style="fill:#840084; fill-opacity:1.0000; 
stroke:#840084; stroke-width:0.0000; stroke-opacity:1; 
stroke-linecap:round; stroke-linejoin:round;">
<path style="fill:#840084; fill-opacity:1.0000; 
stroke:#840084; stroke-width:0.0000; stroke-opacity:1; 
stroke-linecap:round; stroke-linejoin:round;fill-rule:evenodd;"
d="M 8.2450,11.9675
8.2450,14.1675
0.7450,14.1675
0.7450,11.9675
Z" /> 
</g>
<g >
</g>
<g style="fill:#840084; fill-opacity:1.0000; 
stroke:#840084; stroke-width:0.0000; stroke-opacity:1; 
stroke-linecap:round; stroke-linejoin:round;">
<path style="fill:#840084; fill-opacity:1.0000; 
stroke:#840084; stroke-width:0.0000; stroke-opacity:1; 
stroke-linecap:round; stroke-linejoin:round;fill-rule:evenodd;"
d="M 40.2025,10.1500
38.0025,10.1500
38.0025,2.6500
40.2025,2.6500
Z" /> 
</g>
<g >
</g>
<g style="fill:#840084; fill-opacity:1.0000; 
stroke:#840084; stroke-width:0.0000; stroke-opacity:1; 
stroke-linecap:round; stroke-linejoin:round;">
<path style="fill:#840084; fill-opacity:1.0000; 
stroke:#840084; stroke-width:0.0000; stroke-opacity:1; 
stroke-linecap:round; stroke-linejoin:round;fill-rule:evenodd;"
d="M 42.1300,11.5400
44.3300,11.5400
44.3300,19.0400
42.1300,19.0400
Z" /> 
</g>
<g >
</g>
<g style="fill:#840084; fill-opacity:1.0000; 
stroke:#840084; stroke-width:0.0000; stroke-opacity:1; 
stroke-linecap:round; stroke-linejoin:round;">
<path style="fill:#840084; fill-opacity:1.0000; 
stroke:#840084; stroke-width:0.0000; stroke-opacity:1; 
stroke-linecap:round; stroke-linejoin:round;fill-rule:evenodd;"
d="M 62.6575,9.7225
62.6575,7.5225
70.1575,7.5225
70.1575,9.7225
Z" /> 
</g>
<g >
</g>
<g style="fill:#840084; fill-opacity:1.0000; 
stroke:#840084; stroke-width:0.0000; stroke-opacity:1; 
stroke-linecap:round; stroke-linejoin:round;">
<path style="fill:#840084; fill-opacity:1.0000; 
stroke:#840084; stroke-width:0.0000; stroke-opacity:1; 
stroke-linecap:round; stroke-linejoin:round;fill-rule:evenodd;"
d="M 16.7075,10.1500
14.5075,10.1500
14.5075,2.6500
16.7075,2.6500
Z" /> 
</g>
<g >
</g>
<g style="fill:#840084; fill-opacity:1.0000; 
stroke:#840084; stroke-width:0.0000; stroke-opacity:1; 
stroke-linecap:round; stroke-linejoin:round;">
<path style="fill:#840084; fill-opacity:1.0000; 
stroke:#840084; stroke-width:0.0000; stroke-opacity:1; 
stroke-linecap:round; stroke-linejoin:round;fill-rule:evenodd;"
d="M 52.5850,19.0400
50.3850,19.0400
50.3850,11.5400
52.5850,11.5400
Z" /> 
</g>
<g >
</g>
<g style="fill:#840084; fill-opacity:1.0000; 
stroke:#840084; stroke-width:0.0000; stroke-opacity:1; 
stroke-linecap:round; stroke-linejoin:round;">
<path style="fill:#840084; fill-opacity:1.0000; 
stroke:#840084; stroke-width:0.0000; stroke-opacity:1; 
stroke-linecap:round; stroke-linejoin:round;fill-rule:evenodd;"
d="M 36.7100,10.1500
34.5100,10.1500
34.5100,2.6500
36.7100,2.6500
Z" /> 
</g>
<g >
</g>
<g style="fill:#840084; fill-opacity:1.0000; 
stroke:#840084; stroke-width:0.0000; stroke-opacity:1; 
stroke-linecap:round; stroke-linejoin:round;">
<path style="fill:#840084; fill-opacity:1.0000; 
stroke:#840084; stroke-width:0.0000; stroke-opacity:1; 
stroke-linecap:round; stroke-linejoin:round;fill-rule:evenodd;"
d="M 38.0025,11.5400
40.2025,11.5400
40.2025,19.0400
38.0025,19.0400
Z" /> 
</g>
<g >
</g>
<g style="fill:#840084; fill-opacity:1.0000; 
stroke:#840084; stroke-width:0.0000; stroke-opacity:1; 
stroke-linecap:round; stroke-linejoin:round;">
<path style="fill:#840084; fill-opacity:1.0000; 
stroke:#840084; stroke-width:0.0000; stroke-opacity:1; 
stroke-linecap:round; stroke-linejoin:round;fill-rule:evenodd;"
d="M 30.3825,11.5400
32.5825,11.5400
32.5825,19.0400
30.3825,19.0400
Z" /> 
</g>
<g >
</g>
<g style="fill:#840084; fill-opacity:1.0000; 
stroke:#840084; stroke-width:0.0000; stroke-opacity:1; 
stroke-linecap:round; stroke-linejoin:round;">
<path style="fill:#840084; fill-opacity:1.0000; 
stroke:#840084; stroke-width:0.0000; stroke-opacity:1; 
stroke-linecap:round; stroke-linejoin:round;fill-rule:evenodd;"
d="M 70.1575,1.4900
70.1575,3.6900
62.6575,3.6900
62.6575,1.4900
Z" /> 
</g>
<g >
</g>
<g style="fill:#840084; fill-opacity:1.0000; 
stroke:#840084; stroke-width:0.0000; stroke-opacity:1; 
stroke-linecap:round; stroke-linejoin:round;">
<path style="fill:#840084; fill-opacity:1.0000; 
stroke:#840084; stroke-width:0.0000; stroke-opacity:1; 
stroke-linecap:round; stroke-linejoin:round;fill-rule:evenodd;"
d="M 11.0150,11.5400
13.2150,11.5400
13.2150,19.0400
11.0150,19.0400
Z" /> 
</g>
<g >
</g>
<g style="fill:#840084; fill-opacity:1.0000; 
stroke:#840084; stroke-width:0.0000; stroke-opacity:1; 
stroke-linecap:round; stroke-linejoin:round;">
<path style="fill:#840084; fill-opacity:1.0000; 
stroke:#840084; stroke-width:0.0000; stroke-opacity:1; 
stroke-linecap:round; stroke-linejoin:round;fill-rule:evenodd;"
d="M 8.2450,7.5225
8.2450,9.7225
0.7450,9.7225
0.7450,7.5225
Z" /> 
</g>
<g >
</g>
<g style="fill:#840084; fill-opacity:1.0000; 
stroke:#840084; stroke-width:0.0000; stroke-opacity:1; 
stroke-linecap:round; stroke-linejoin:round;">
<path style="fill:#840084; fill-opacity:1.0000; 
stroke:#840084; stroke-width:0.0000; stroke-opacity:1; 
stroke-linecap:round; stroke-linejoin:round;fill-rule:evenodd;"
d="M 24.9625,10.1500
22.7625,10.1500
22.7625,2.6500
24.9625,2.6500
Z" /> 
</g>
<g >
</g>
<g style="fill:#840084; fill-opacity:1.0000; 
stroke:#840084; stroke-width:0.0000; stroke-opacity:1; 
stroke-linecap:round; stroke-linejoin:round;">
<path style="fill:#840084; fill-opacity:1.0000; 
stroke:#840084; stroke-width:0.0000; stroke-opacity:1; 
stroke-linecap:round; stroke-linejoin:round;fill-rule:evenodd;"
d="M 44.3300,10.1500
42.1300,10.1500
42.1300,2.6500
44.3300,2.6500
Z" /> 
</g>
<g >
</g>
<g style="fill:#840084; fill-opacity:1.0000; 
stroke:#840084; stroke-width:0.0000; stroke-opacity:1; 
stroke-linecap:round; stroke-linejoin:round;">
<path style="fill:#840084; fill-opacity:1.0000; 
stroke:#840084; stroke-width:0.0000; stroke-opacity:1; 
stroke-linecap:round; stroke-linejoin:round;fill-rule:evenodd;"
d="M 46.2575,11.5400
48.4575,11.5400
48.4575,19.0400
46.2575,19.0400
Z" /> 
</g>
<g >
</g>
<g style="fill:#840084; fill-opacity:1.0000; 
stroke:#840084; stroke-width:0.0000; stroke-opacity:1; 
stroke-linecap:round; stroke-linejoin:round;">
<path style="fill:#840084; fill-opacity:1.0000; 
stroke:#840084; stroke-width:0.0000; stroke-opacity:1; 
stroke-linecap:round; stroke-linejoin:round;fill-rule:evenodd;"
d="M 0.7450,20.2000
0.7450,18.0000
8.2450,18.0000
8.2450,20.2000
Z" /> 
</g>
<g >
</g>
<g style="fill:#840084; fill-opacity:1.0000; 
stroke:#840084; stroke-width:0.0000; stroke-opacity:1; 
stroke-linecap:round; stroke-linejoin:round;">
<path style="fill:#840084; fill-opacity:1.0000; 
stroke:#840084; stroke-width:0.0000; stroke-opacity:1; 
stroke-linecap:round; stroke-linejoin:round;fill-rule:evenodd;"
d="M 20.8350,10.1500
18.6350,10.1500
18.6350,2.6500
20.8350,2.6500
Z" /> 
</g>
<g >
</g>
<g style="fill:#840084; fill-opacity:1.0000; 
stroke:#840084; stroke-width:0.0000; stroke-opacity:1; 
stroke-linecap:round; stroke-linejoin:round;">
<path style="fill:#840084; fill-opacity:1.0000; 
stroke:#840084; stroke-width:0.0000; stroke-opacity:1; 
stroke-linecap:round; stroke-linejoin:round;fill-rule:evenodd;"
d="M 52.5850,10.1500
50.3850,10.1500
50.3850,2.6500
52.5850,2.6500
Z" /> 
</g>
<g >
</g>
<g style="fill:#840084; fill-opacity:1.0000; 
stroke:#840084; stroke-width:0.0000; stroke-opacity:1; 
stroke-linecap:round; stroke-linejoin:round;">
<path style="fill:#840084; fill-opacity:1.0000; 
stroke:#840084; stroke-width:0.0000; stroke-opacity:1; 
stroke-linecap:round; stroke-linejoin:round;fill-rule:evenodd;"
d="M 0.7450,3.6900
0.7450,1.4900
8.2450,1.4900
8.2450,3.6900
Z" /> 
</g>
<g >
</g>
<g style="fill:#840084; fill-opacity:1.0000; 
stroke:#840084; stroke-width:0.0000; stroke-opacity:1; 
stroke-linecap:round; stroke-linejoin:round;">
<path style="fill:#840084; fill-opacity:1.0000; 
stroke:#840084; stroke-width:0.0000; stroke-opacity:1; 
stroke-linecap:round; stroke-linejoin:round;fill-rule:evenodd;"
d="M 62.6575,20.2000
62.6575,18.0000
70.1575,18.0000
70.1575,20.2000
Z" /> 
</g>
<g >
</g>
<g style="fill:#840084; fill-opacity:1.0000; 
stroke:#840084; stroke-width:0.0000; stroke-opacity:1; 
stroke-linecap:round; stroke-linejoin:round;">
<path style="fill:#840084; fill-opacity:1.0000; 
stroke:#840084; stroke-width:0.0000; stroke-opacity:1; 
stroke-linecap:round; stroke-linejoin:round;fill-rule:evenodd;"
d="M 56.7125,19.0400
54.5125,19.0400
54.5125,11.5400
56.7125,11.5400
Z" /> 
</g>
<g >
</g>
<g style="fill:#840084; fill-opacity:1.0000; 
stroke:#840084; stroke-width:0.0000; stroke-opacity:1; 
stroke-linecap:round; stroke-linejoin:round;">
<path style="fill:#840084; fill-opacity:1.0000; 
stroke:#840084; stroke-width:0.0000; stroke-opacity:1; 
stroke-linecap:round; stroke-linejoin:round;fill-rule:evenodd;"
d="M 13.2150,10.1500
11.0150,10.1500
11.0150,2.6500
13.2150,2.6500
Z" /> 
</g>
<g >
</g>
<g style="fill:#840084; fill-opacity:1.0000; 
stroke:#840084; stroke-width:0.0000; stroke-opacity:1; 
stroke-linecap:round; stroke-linejoin:round;">
<path style="fill:#840084; fill-opacity:1.0000; 
stroke:#840084; stroke-width:0.0000; stroke-opacity:1; 
stroke-linecap:round; stroke-linejoin:round;fill-rule:evenodd;"
d="M 56.7125,10.1500
54.5125,10.1500
54.5125,2.6500
56.7125,2.6500
Z" /> 
</g>
<g >
</g>
<g style="fill:#840084; fill-opacity:1.0000; 
stroke:#840084; stroke-width:0.0000; stroke-opacity:1; 
stroke-linecap:round; stroke-linejoin:round;">
<path style="fill:#840084; fill-opacity:1.0000; 
stroke:#840084; stroke-width:0.0000; stroke-opacity:1; 
stroke-linecap:round; stroke-linejoin:round;fill-rule:evenodd;"
d="M 32.5825,10.1500
30.3825,10.1500
30.3825,2.6500
32.5825,2.6500
Z" /> 
</g>
<g >
</g>
<g style="fill:#840084; fill-opacity:1.0000; 
stroke:#840084; stroke-width:0.0000; stroke-opacity:1; 
stroke-linecap:round; stroke-linejoin:round;">
<path style="fill:#840084; fill-opacity:1.0000; 
stroke:#840084; stroke-width:0.0000; stroke-opacity:1; 
stroke-linecap:round; stroke-linejoin:round;fill-rule:evenodd;"
d="M 18.6350,11.5400
20.8350,11.5400
20.8350,19.0400
18.6350,19.0400
Z" /> 
</g>
<g >
</g>
<g style="fill:#840084; fill-opacity:1.0000; 
stroke:#840084; stroke-width:0.0000; stroke-opacity:1; 
stroke-linecap:round; stroke-linejoin:round;">
<path style="fill:#840084; fill-opacity:1.0000; 
stroke:#840084; stroke-width:0.0000; stroke-opacity:1; 
stroke-linecap:round; stroke-linejoin:round;fill-rule:evenodd;"
d="M 60.2050,19.0400
58.0050,19.0400
58.0050,11.5400
60.2050,11.5400
Z" /> 
</g>
<g >
</g>
<g style="fill:#840084; fill-opacity:1.0000; 
stroke:#840084; stroke-width:0.0000; stroke-opacity:1; 
stroke-linecap:round; stroke-linejoin:round;">
<path style="fill:#840084; fill-opacity:1.0000; 
stroke:#840084; stroke-width:0.0000; stroke-opacity:1; 
stroke-linecap:round; stroke-linejoin:round;fill-rule:evenodd;"
d="M 29.0900,10.1500
26.8900,10.1500
26.8900,2.6500
29.0900,2.6500
Z" /> 
</g>
<g >
</g>
<g style="fill:#840084; fill-opacity:1.0000; 
stroke:#840084; stroke-width:0.0000; stroke-opacity:1; 
stroke-linecap:round; stroke-linejoin:round;">
<path style="fill:#840084; fill-opacity:1.0000; 
stroke:#840084; stroke-width:0.0000; stroke-opacity:1; 
stroke-linecap:round; stroke-linejoin:round;fill-rule:evenodd;"
d="M 34.5100,11.5400
36.7100,11.5400
36.7100,19.0400
34.5100,19.0400
Z" /> 
</g>
<g >
</g>
<g style="fill:#840084; fill-opacity:1.0000; 
stroke:#840084; stroke-width:0.0000; stroke-opacity:1; 
stroke-linecap:round; stroke-linejoin:round;">
<path style="fill:#840084; fill-opacity:1.0000; 
stroke:#840084; stroke-width:0.0000; stroke-opacity:1; 
stroke-linecap:round; stroke-linejoin:round;fill-rule:evenodd;"
d="M 14.5075,11.5400
16.7075,11.5400
16.7075,19.0400
14.5075,19.0400
Z" /> 
</g>
<g >
</g>
<g style="fill:#840084; fill-opacity:1.0000; 
stroke:#840084; stroke-width:0.0000; stroke-opacity:1; 
stroke-linecap:round; stroke-linejoin:round;">
<path style="fill:#840084; fill-opacity:1.0000; 
stroke:#840084; stroke-width:0.0000; stroke-opacity:1; 
stroke-linecap:round; stroke-linejoin:round;fill-rule:evenodd;"
d="M 60.2050,10.1500
58.0050,10.1500
58.0050,2.6500
60.2050,2.6500
Z" /> 
</g>
<g >
</g>
<g style="fill:#840084; fill-opacity:1.0000; 
stroke:#840084; stroke-width:0.0000; stroke-opacity:1; 
stroke-linecap:round; stroke-linejoin:round;">
<circle cx="47.3575" cy="5.7650" r="1.0500" /> 
</g>
<g style="fill:#840084; fill-opacity:1.0000; 
stroke:#840084; stroke-width:0.0212; stroke-opacity:1; 
stroke-linecap:round; stroke-linejoin:round;">
</g>
<g >
</g>
<g >
</g>
<g >
</g>
</g>
<g style="fill:#000000; fill-opacity:1.0000; 
stroke:#000000; stroke-width:0.0212; stroke-opacity:1; 
stroke-linecap:round; stroke-linejoin:round;">
</g>
<g style="fill:#008484; fill-opacity:1.0000; 
stroke:#008484; stroke-width:0.0212; stroke-opacity:1; 
stroke-linecap:round; stroke-linejoin:round;">
</g>
<g style="fill:#008484; fill-opacity:1.0000; 
stroke:#008484; stroke-width:0.3000; stroke-opacity:1; 
stroke-linecap:round; stroke-linejoin:round;">
</g>
<g style="fill:#008484; fill-opacity:0.0; 
stroke:#008484; stroke-width:0.3000; stroke-opacity:1; 
stroke-linecap:round; stroke-linejoin:round;">
<text x="47.3575" y="10.3250"
textLength="5.3143" font-size="2.0000" lengthAdjust="spacingAndGlyphs"
text-anchor="middle" opacity="0">v1.0</text>
<g class="stroked-text"><desc>v1.0</desc>
<path d="M45.2146 9.2533
L45.5718 10.2533
" />
<path d="M45.5718 10.2533
L45.9289 9.2533
" />
<path d="M47.2861 10.2533
L46.4289 10.2533
" />
<path d="M46.8575 10.2533
L46.8575 8.7533
" />
<path d="M46.8575 8.7533
L46.7146 8.9676
" />
<path d="M46.7146 8.9676
L46.5718 9.1105
" />
<path d="M46.5718 9.1105
L46.4289 9.1819
" />
<path d="M47.9289 10.1105
L48.0004 10.1819
" />
<path d="M48.0004 10.1819
L47.9289 10.2533
" />
<path d="M47.9289 10.2533
L47.8575 10.1819
" />
<path d="M47.8575 10.1819
L47.9289 10.1105
" />
<path d="M47.9289 10.1105
L47.9289 10.2533
" />
<path d="M48.9289 8.7533
L49.0718 8.7533
" />
<path d="M49.0718 8.7533
L49.2146 8.8248
" />
<path d="M49.2146 8.8248
L49.2861 8.8962
" />
<path d="M49.2861 8.8962
L49.3575 9.0390
" />
<path d="M49.3575 9.0390
L49.4289 9.3248
" />
<path d="M49.4289 9.3248
L49.4289 9.6819
" />
<path d="M49.4289 9.6819
L49.3575 9.9676
" />
<path d="M49.3575 9.9676
L49.2861 10.1105
" />
<path d="M49.2861 10.1105
L49.2146 10.1819
" />
<path d="M49.2146 10.1819
L49.0718 10.2533
" />
<path d="M49.0718 10.2533
L48.9289 10.2533
" />
<path d="M48.9289 10.2533
L48.7861 10.1819
" />
<path d="M48.7861 10.1819
L48.7146 10.1105
" />
<path d="M48.7146 10.1105
L48.6432 9.9676
" />
<path d="M48.6432 9.9676
L48.5718 9.6819
" />
<path d="M48.5718 9.6819
L48.5718 9.3248
" />
<path d="M48.5718 9.3248
L48.6432 9.0390
" />
<path d="M48.6432 9.0390
L48.7146 8.8962
" />
<path d="M48.7146 8.8962
L48.7861 8.8248
" />
<path d="M48.7861 8.8248
L48.9289 8.7533
" />
</g></g>
<g style="fill:#008484; fill-opacity:0.0; 
stroke:#008484; stroke-width:0.1250; stroke-opacity:1; 
stroke-linecap:round; stroke-linejoin:round;">
<text x="47.6750" y="1.2525"
textLength="4.7512" font-size="0.6667" lengthAdjust="spacingAndGlyphs"
text-anchor="middle" opacity="0">©H3-H5N6</text>
<g class="stroked-text"><desc>©H3-H5N6</desc>
<path d="M45.9607 0.8464
L45.9131 0.8225
" />
<path d="M45.9131 0.8225
L45.8179 0.8225
" />
<path d="M45.8179 0.8225
L45.7702 0.8464
" />
<path d="M45.7702 0.8464
L45.7226 0.8940
" />
<path d="M45.7226 0.8940
L45.6988 0.9416
" />
<path d="M45.6988 0.9416
L45.6988 1.0368
" />
<path d="M45.6988 1.0368
L45.7226 1.0845
" />
<path d="M45.7226 1.0845
L45.7702 1.1321
" />
<path d="M45.7702 1.1321
L45.8179 1.1559
" />
<path d="M45.8179 1.1559
L45.9131 1.1559
" />
<path d="M45.9131 1.1559
L45.9607 1.1321
" />
<path d="M45.8655 0.6559
L45.7464 0.6797
" />
<path d="M45.7464 0.6797
L45.6274 0.7511
" />
<path d="M45.6274 0.7511
L45.5560 0.8702
" />
<path d="M45.5560 0.8702
L45.5321 0.9892
" />
<path d="M45.5321 0.9892
L45.5560 1.1083
" />
<path d="M45.5560 1.1083
L45.6274 1.2273
" />
<path d="M45.6274 1.2273
L45.7464 1.2987
" />
<path d="M45.7464 1.2987
L45.8655 1.3225
" />
<path d="M45.8655 1.3225
L45.9845 1.2987
" />
<path d="M45.9845 1.2987
L46.1036 1.2273
" />
<path d="M46.1036 1.2273
L46.1750 1.1083
" />
<path d="M46.1750 1.1083
L46.1988 0.9892
" />
<path d="M46.1988 0.9892
L46.1750 0.8702
" />
<path d="M46.1750 0.8702
L46.1036 0.7511
" />
<path d="M46.1036 0.7511
L45.9845 0.6797
" />
<path d="M45.9845 0.6797
L45.8655 0.6559
" />
<path d="M46.4131 1.2273
L46.4131 0.7273
" />
<path d="M46.4131 0.9654
L46.6988 0.9654
" />
<path d="M46.6988 1.2273
L46.6988 0.7273
" />
<path d="M46.8893 0.7273
L47.1988 0.7273
" />
<path d="M47.1988 0.7273
L47.0321 0.9178
" />
<path d="M47.0321 0.9178
L47.1036 0.9178
" />
<path d="M47.1036 0.9178
L47.1512 0.9416
" />
<path d="M47.1512 0.9416
L47.1750 0.9654
" />
<path d="M47.1750 0.9654
L47.1988 1.0130
" />
<path d="M47.1988 1.0130
L47.1988 1.1321
" />
<path d="M47.1988 1.1321
L47.1750 1.1797
" />
<path d="M47.1750 1.1797
L47.1512 1.2035
" />
<path d="M47.1512 1.2035
L47.1036 1.2273
" />
<path d="M47.1036 1.2273
L46.9607 1.2273
" />
<path d="M46.9607 1.2273
L46.9131 1.2035
" />
<path d="M46.9131 1.2035
L46.8893 1.1797
" />
<path d="M47.4131 1.0368
L47.7940 1.0368
" />
<path d="M48.0321 1.2273
L48.0321 0.7273
" />
<path d="M48.0321 0.9654
L48.3179 0.9654
" />
<path d="M48.3179 1.2273
L48.3179 0.7273
" />
<path d="M48.7940 0.7273
L48.5560 0.7273
" />
<path d="M48.5560 0.7273
L48.5321 0.9654
" />
<path d="M48.5321 0.9654
L48.5560 0.9416
" />
<path d="M48.5560 0.9416
L48.6036 0.9178
" />
<path d="M48.6036 0.9178
L48.7226 0.9178
" />
<path d="M48.7226 0.9178
L48.7702 0.9416
" />
<path d="M48.7702 0.9416
L48.7940 0.9654
" />
<path d="M48.7940 0.9654
L48.8179 1.0130
" />
<path d="M48.8179 1.0130
L48.8179 1.1321
" />
<path d="M48.8179 1.1321
L48.7940 1.1797
" />
<path d="M48.7940 1.1797
L48.7702 1.2035
" />
<path d="M48.7702 1.2035
L48.7226 1.2273
" />
<path d="M48.7226 1.2273
L48.6036 1.2273
" />
<path d="M48.6036 1.2273
L48.5560 1.2035
" />
<path d="M48.5560 1.2035
L48.5321 1.1797
" />
<path d="M49.0321 1.2273
L49.0321 0.7273
" />
<path d="M49.0321 0.7273
L49.3179 1.2273
" />
<path d="M49.3179 1.2273
L49.3179 0.7273
" />
<path d="M49.7702 0.7273
L49.6750 0.7273
" />
<path d="M49.6750 0.7273
L49.6274 0.7511
" />
<path d="M49.6274 0.7511
L49.6036 0.7749
" />
<path d="M49.6036 0.7749
L49.5560 0.8464
" />
<path d="M49.5560 0.8464
L49.5321 0.9416
" />
<path d="M49.5321 0.9416
L49.5321 1.1321
" />
<path d="M49.5321 1.1321
L49.5560 1.1797
" />
<path d="M49.5560 1.1797
L49.5798 1.2035
" />
<path d="M49.5798 1.2035
L49.6274 1.2273
" />
<path d="M49.6274 1.2273
L49.7226 1.2273
" />
<path d="M49.7226 1.2273
L49.7702 1.2035
" />
<path d="M49.7702 1.2035
L49.7940 1.1797
" />
<path d="M49.7940 1.1797
L49.8179 1.1321
" />
<path d="M49.8179 1.1321
L49.8179 1.0130
" />
<path d="M49.8179 1.0130
L49.7940 0.9654
" />
<path d="M49.7940 0.9654
L49.7702 0.9416
" />
<path d="M49.7702 0.9416
L49.7226 0.9178
" />
<path d="M49.7226 0.9178
L49.6274 0.9178
" />
<path d="M49.6274 0.9178
L49.5798 0.9416
" />
<path d="M49.5798 0.9416
L49.5560 0.9654
" />
<path d="M49.5560 0.9654
L49.5321 1.0130
" />
</g></g>
<g style="fill:#008484; fill-opacity:0.0; 
stroke:#008484; stroke-width:0.1500; stroke-opacity:1; 
stroke-linecap:round; stroke-linejoin:round;">
<text x="27.9900" y="20.8700"
textLength="1.1548" font-size="1.3333" lengthAdjust="spacingAndGlyphs"
text-anchor="middle" opacity="0">g</text>
<g class="stroked-text"><desc>g</desc>
<path d="M28.2043 20.1582
L28.2043 20.9677
" />
<path d="M28.2043 20.9677
L28.1567 21.0629
" />
<path d="M28.1567 21.0629
L28.1090 21.1105
" />
<path d="M28.1090 21.1105
L28.0138 21.1582
" />
<path d="M28.0138 21.1582
L27.8710 21.1582
" />
<path d="M27.8710 21.1582
L27.7757 21.1105
" />
<path d="M28.2043 20.7772
L28.1090 20.8248
" />
<path d="M28.1090 20.8248
L27.9186 20.8248
" />
<path d="M27.9186 20.8248
L27.8233 20.7772
" />
<path d="M27.8233 20.7772
L27.7757 20.7296
" />
<path d="M27.7757 20.7296
L27.7281 20.6343
" />
<path d="M27.7281 20.6343
L27.7281 20.3486
" />
<path d="M27.7281 20.3486
L27.7757 20.2534
" />
<path d="M27.7757 20.2534
L27.8233 20.2058
" />
<path d="M27.8233 20.2058
L27.9186 20.1582
" />
<path d="M27.9186 20.1582
L28.1090 20.1582
" />
<path d="M28.1090 20.1582
L28.2043 20.2058
" />
</g><text x="62.2800" y="15.7900"
textLength="1.1548" font-size="1.3333" lengthAdjust="spacingAndGlyphs"
text-anchor="start" opacity="0">a</text>
<g class="stroked-text"><desc>a</desc>
<path d="M63.0453 15.7448
L63.0453 15.2210
" />
<path d="M63.0453 15.2210
L62.9977 15.1258
" />
<path d="M62.9977 15.1258
L62.9025 15.0782
" />
<path d="M62.9025 15.0782
L62.7120 15.0782
" />
<path d="M62.7120 15.0782
L62.6168 15.1258
" />
<path d="M63.0453 15.6972
L62.9501 15.7448
" />
<path d="M62.9501 15.7448
L62.7120 15.7448
" />
<path d="M62.7120 15.7448
L62.6168 15.6972
" />
<path d="M62.6168 15.6972
L62.5692 15.6020
" />
<path d="M62.5692 15.6020
L62.5692 15.5067
" />
<path d="M62.5692 15.5067
L62.6168 15.4115
" />
<path d="M62.6168 15.4115
L62.7120 15.3639
" />
<path d="M62.7120 15.3639
L62.9501 15.3639
" />
<path d="M62.9501 15.3639
L63.0453 15.3162
" />
</g><text x="7.6700" y="15.7900"
textLength="1.1548" font-size="1.3333" lengthAdjust="spacingAndGlyphs"
text-anchor="start" opacity="0">a</text>
<g class="stroked-text"><desc>a</desc>
<path d="M8.4353 15.7448
L8.4353 15.2210
" />
<path d="M8.4353 15.2210
L8.3877 15.1258
" />
<path d="M8.3877 15.1258
L8.2925 15.0782
" />
<path d="M8.2925 15.0782
L8.1020 15.0782
" />
<path d="M8.1020 15.0782
L8.0068 15.1258
" />
<path d="M8.4353 15.6972
L8.3401 15.7448
" />
<path d="M8.3401 15.7448
L8.1020 15.7448
" />
<path d="M8.1020 15.7448
L8.0068 15.6972
" />
<path d="M8.0068 15.6972
L7.9592 15.6020
" />
<path d="M7.9592 15.6020
L7.9592 15.5067
" />
<path d="M7.9592 15.5067
L8.0068 15.4115
" />
<path d="M8.0068 15.4115
L8.1020 15.3639
" />
<path d="M8.1020 15.3639
L8.3401 15.3639
" />
<path d="M8.3401 15.3639
L8.4353 15.3162
" />
</g><text x="37.8325" y="1.8200"
textLength="3.6310" font-size="1.3333" lengthAdjust="spacingAndGlyphs"
text-anchor="start" opacity="0">Prz2</text>
<g class="stroked-text"><desc>Prz2</desc>
<path d="M38.1693 1.7748
L38.1693 0.7748
" />
<path d="M38.1693 0.7748
L38.5502 0.7748
" />
<path d="M38.5502 0.7748
L38.6455 0.8224
" />
<path d="M38.6455 0.8224
L38.6931 0.8701
" />
<path d="M38.6931 0.8701
L38.7407 0.9653
" />
<path d="M38.7407 0.9653
L38.7407 1.1082
" />
<path d="M38.7407 1.1082
L38.6931 1.2034
" />
<path d="M38.6931 1.2034
L38.6455 1.2510
" />
<path d="M38.6455 1.2510
L38.5502 1.2986
" />
<path d="M38.5502 1.2986
L38.1693 1.2986
" />
<path d="M39.1693 1.7748
L39.1693 1.1082
" />
<path d="M39.1693 1.2986
L39.2169 1.2034
" />
<path d="M39.2169 1.2034
L39.2645 1.1558
" />
<path d="M39.2645 1.1558
L39.3598 1.1082
" />
<path d="M39.3598 1.1082
L39.4550 1.1082
" />
<path d="M39.6931 1.1082
L40.2169 1.1082
" />
<path d="M40.2169 1.1082
L39.6931 1.7748
" />
<path d="M39.6931 1.7748
L40.2169 1.7748
" />
<path d="M40.5502 0.8701
L40.5979 0.8224
" />
<path d="M40.5979 0.8224
L40.6931 0.7748
" />
<path d="M40.6931 0.7748
L40.9312 0.7748
" />
<path d="M40.9312 0.7748
L41.0264 0.8224
" />
<path d="M41.0264 0.8224
L41.0740 0.8701
" />
<path d="M41.0740 0.8701
L41.1217 0.9653
" />
<path d="M41.1217 0.9653
L41.1217 1.0605
" />
<path d="M41.1217 1.0605
L41.0740 1.2034
" />
<path d="M41.0740 1.2034
L40.5026 1.7748
" />
<path d="M40.5026 1.7748
L41.1217 1.7748
" />
</g><text x="41.3250" y="20.8700"
textLength="3.2976" font-size="1.3333" lengthAdjust="spacingAndGlyphs"
text-anchor="start" opacity="0">GND</text>
<g class="stroked-text"><desc>GND</desc>
<path d="M42.1856 19.8724
L42.0904 19.8248
" />
<path d="M42.0904 19.8248
L41.9475 19.8248
" />
<path d="M41.9475 19.8248
L41.8046 19.8724
" />
<path d="M41.8046 19.8724
L41.7094 19.9677
" />
<path d="M41.7094 19.9677
L41.6618 20.0629
" />
<path d="M41.6618 20.0629
L41.6142 20.2534
" />
<path d="M41.6142 20.2534
L41.6142 20.3962
" />
<path d="M41.6142 20.3962
L41.6618 20.5867
" />
<path d="M41.6618 20.5867
L41.7094 20.6820
" />
<path d="M41.7094 20.6820
L41.8046 20.7772
" />
<path d="M41.8046 20.7772
L41.9475 20.8248
" />
<path d="M41.9475 20.8248
L42.0427 20.8248
" />
<path d="M42.0427 20.8248
L42.1856 20.7772
" />
<path d="M42.1856 20.7772
L42.2332 20.7296
" />
<path d="M42.2332 20.7296
L42.2332 20.3962
" />
<path d="M42.2332 20.3962
L42.0427 20.3962
" />
<path d="M42.6618 20.8248
L42.6618 19.8248
" />
<path d="M42.6618 19.8248
L43.2332 20.8248
" />
<path d="M43.2332 20.8248
L43.2332 19.8248
" />
<path d="M43.7094 20.8248
L43.7094 19.8248
" />
<path d="M43.7094 19.8248
L43.9475 19.8248
" />
<path d="M43.9475 19.8248
L44.0904 19.8724
" />
<path d="M44.0904 19.8724
L44.1856 19.9677
" />
<path d="M44.1856 19.9677
L44.2332 20.0629
" />
<path d="M44.2332 20.0629
L44.2808 20.2534
" />
<path d="M44.2808 20.2534
L44.2808 20.3962
" />
<path d="M44.2808 20.3962
L44.2332 20.5867
" />
<path d="M44.2332 20.5867
L44.1856 20.6820
" />
<path d="M44.1856 20.6820
L44.0904 20.7772
" />
<path d="M44.0904 20.7772
L43.9475 20.8248
" />
<path d="M43.9475 20.8248
L43.7094 20.8248
" />
</g><text x="62.2800" y="6.5825"
textLength="1.1548" font-size="1.3333" lengthAdjust="spacingAndGlyphs"
text-anchor="start" opacity="0">g</text>
<g class="stroked-text"><desc>g</desc>
<path d="M63.0453 5.8707
L63.0453 6.6802
" />
<path d="M63.0453 6.6802
L62.9977 6.7754
" />
<path d="M62.9977 6.7754
L62.9501 6.8230
" />
<path d="M62.9501 6.8230
L62.8549 6.8707
" />
<path d="M62.8549 6.8707
L62.7120 6.8707
" />
<path d="M62.7120 6.8707
L62.6168 6.8230
" />
<path d="M63.0453 6.4897
L62.9501 6.5373
" />
<path d="M62.9501 6.5373
L62.7596 6.5373
" />
<path d="M62.7596 6.5373
L62.6644 6.4897
" />
<path d="M62.6644 6.4897
L62.6168 6.4421
" />
<path d="M62.6168 6.4421
L62.5692 6.3468
" />
<path d="M62.5692 6.3468
L62.5692 6.0611
" />
<path d="M62.5692 6.0611
L62.6168 5.9659
" />
<path d="M62.6168 5.9659
L62.6644 5.9183
" />
<path d="M62.6644 5.9183
L62.7596 5.8707
" />
<path d="M62.7596 5.8707
L62.9501 5.8707
" />
<path d="M62.9501 5.8707
L63.0453 5.9183
" />
</g><text x="13.7025" y="1.8200"
textLength="3.4881" font-size="1.3333" lengthAdjust="spacingAndGlyphs"
text-anchor="start" opacity="0">A1.2</text>
<g class="stroked-text"><desc>A1.2</desc>
<path d="M13.9917 1.4891
L14.4678 1.4891
" />
<path d="M13.8964 1.7748
L14.2298 0.7748
" />
<path d="M14.2298 0.7748
L14.5631 1.7748
" />
<path d="M15.4202 1.7748
L14.8488 1.7748
" />
<path d="M15.1345 1.7748
L15.1345 0.7748
" />
<path d="M15.1345 0.7748
L15.0393 0.9177
" />
<path d="M15.0393 0.9177
L14.9440 1.0129
" />
<path d="M14.9440 1.0129
L14.8488 1.0605
" />
<path d="M15.8488 1.6796
L15.8964 1.7272
" />
<path d="M15.8964 1.7272
L15.8488 1.7748
" />
<path d="M15.8488 1.7748
L15.8012 1.7272
" />
<path d="M15.8012 1.7272
L15.8488 1.6796
" />
<path d="M15.8488 1.6796
L15.8488 1.7748
" />
<path d="M16.2774 0.8701
L16.3250 0.8224
" />
<path d="M16.3250 0.8224
L16.4202 0.7748
" />
<path d="M16.4202 0.7748
L16.6583 0.7748
" />
<path d="M16.6583 0.7748
L16.7536 0.8224
" />
<path d="M16.7536 0.8224
L16.8012 0.8701
" />
<path d="M16.8012 0.8701
L16.8488 0.9653
" />
<path d="M16.8488 0.9653
L16.8488 1.0605
" />
<path d="M16.8488 1.0605
L16.8012 1.2034
" />
<path d="M16.8012 1.2034
L16.2298 1.7748
" />
<path d="M16.2298 1.7748
L16.8488 1.7748
" />
</g><text x="50.2150" y="20.8700"
textLength="3.3929" font-size="1.3333" lengthAdjust="spacingAndGlyphs"
text-anchor="start" opacity="0">+12</text>
<g class="stroked-text"><desc>+12</desc>
<path d="M50.5518 20.4439
L51.3137 20.4439
" />
<path d="M50.9327 20.8248
L50.9327 20.0629
" />
<path d="M52.3137 20.8248
L51.7423 20.8248
" />
<path d="M52.0280 20.8248
L52.0280 19.8248
" />
<path d="M52.0280 19.8248
L51.9327 19.9677
" />
<path d="M51.9327 19.9677
L51.8375 20.0629
" />
<path d="M51.8375 20.0629
L51.7423 20.1105
" />
<path d="M52.6946 19.9201
L52.7423 19.8724
" />
<path d="M52.7423 19.8724
L52.8375 19.8248
" />
<path d="M52.8375 19.8248
L53.0756 19.8248
" />
<path d="M53.0756 19.8248
L53.1708 19.8724
" />
<path d="M53.1708 19.8724
L53.2184 19.9201
" />
<path d="M53.2184 19.9201
L53.2661 20.0153
" />
<path d="M53.2661 20.0153
L53.2661 20.1105
" />
<path d="M53.2661 20.1105
L53.2184 20.2534
" />
<path d="M53.2184 20.2534
L52.6470 20.8248
" />
<path d="M52.6470 20.8248
L53.2661 20.8248
" />
</g><text x="34.3100" y="1.8200"
textLength="3.6310" font-size="1.3333" lengthAdjust="spacingAndGlyphs"
text-anchor="start" opacity="0">Prz1</text>
<g class="stroked-text"><desc>Prz1</desc>
<path d="M34.6468 1.7748
L34.6468 0.7748
" />
<path d="M34.6468 0.7748
L35.0277 0.7748
" />
<path d="M35.0277 0.7748
L35.1230 0.8224
" />
<path d="M35.1230 0.8224
L35.1706 0.8701
" />
<path d="M35.1706 0.8701
L35.2182 0.9653
" />
<path d="M35.2182 0.9653
L35.2182 1.1082
" />
<path d="M35.2182 1.1082
L35.1706 1.2034
" />
<path d="M35.1706 1.2034
L35.1230 1.2510
" />
<path d="M35.1230 1.2510
L35.0277 1.2986
" />
<path d="M35.0277 1.2986
L34.6468 1.2986
" />
<path d="M35.6468 1.7748
L35.6468 1.1082
" />
<path d="M35.6468 1.2986
L35.6944 1.2034
" />
<path d="M35.6944 1.2034
L35.7420 1.1558
" />
<path d="M35.7420 1.1558
L35.8373 1.1082
" />
<path d="M35.8373 1.1082
L35.9325 1.1082
" />
<path d="M36.1706 1.1082
L36.6944 1.1082
" />
<path d="M36.6944 1.1082
L36.1706 1.7748
" />
<path d="M36.1706 1.7748
L36.6944 1.7748
" />
<path d="M37.5992 1.7748
L37.0277 1.7748
" />
<path d="M37.3134 1.7748
L37.3134 0.7748
" />
<path d="M37.3134 0.7748
L37.2182 0.9177
" />
<path d="M37.2182 0.9177
L37.1230 1.0129
" />
<path d="M37.1230 1.0129
L37.0277 1.0605
" />
</g><text x="37.8325" y="20.8700"
textLength="1.9167" font-size="1.3333" lengthAdjust="spacingAndGlyphs"
text-anchor="start" opacity="0">Ta</text>
<g class="stroked-text"><desc>Ta</desc>
<path d="M38.0264 19.8248
L38.5979 19.8248
" />
<path d="M38.3121 20.8248
L38.3121 19.8248
" />
<path d="M39.3598 20.8248
L39.3598 20.3010
" />
<path d="M39.3598 20.3010
L39.3121 20.2058
" />
<path d="M39.3121 20.2058
L39.2169 20.1582
" />
<path d="M39.2169 20.1582
L39.0264 20.1582
" />
<path d="M39.0264 20.1582
L38.9312 20.2058
" />
<path d="M39.3598 20.7772
L39.2645 20.8248
" />
<path d="M39.2645 20.8248
L39.0264 20.8248
" />
<path d="M39.0264 20.8248
L38.9312 20.7772
" />
<path d="M38.9312 20.7772
L38.8836 20.6820
" />
<path d="M38.8836 20.6820
L38.8836 20.5867
" />
<path d="M38.8836 20.5867
L38.9312 20.4915
" />
<path d="M38.9312 20.4915
L39.0264 20.4439
" />
<path d="M39.0264 20.4439
L39.2645 20.4439
" />
<path d="M39.2645 20.4439
L39.3598 20.3962
" />
</g><text x="30.8475" y="20.8700"
textLength="1.1548" font-size="1.3333" lengthAdjust="spacingAndGlyphs"
text-anchor="start" opacity="0">a</text>
<g class="stroked-text"><desc>a</desc>
<path d="M31.6128 20.8248
L31.6128 20.3010
" />
<path d="M31.6128 20.3010
L31.5652 20.2058
" />
<path d="M31.5652 20.2058
L31.4700 20.1582
" />
<path d="M31.4700 20.1582
L31.2795 20.1582
" />
<path d="M31.2795 20.1582
L31.1843 20.2058
" />
<path d="M31.6128 20.7772
L31.5176 20.8248
" />
<path d="M31.5176 20.8248
L31.2795 20.8248
" />
<path d="M31.2795 20.8248
L31.1843 20.7772
" />
<path d="M31.1843 20.7772
L31.1367 20.6820
" />
<path d="M31.1367 20.6820
L31.1367 20.5867
" />
<path d="M31.1367 20.5867
L31.1843 20.4915
" />
<path d="M31.1843 20.4915
L31.2795 20.4439
" />
<path d="M31.2795 20.4439
L31.5176 20.4439
" />
<path d="M31.5176 20.4439
L31.6128 20.3962
" />
</g><text x="66.4075" y="5.6300"
textLength="4.2500" font-size="1.3333" lengthAdjust="spacingAndGlyphs"
text-anchor="start" opacity="0">+12V</text>
<g class="stroked-text"><desc>+12V</desc>
<path d="M66.7443 5.2039
L67.5062 5.2039
" />
<path d="M67.1252 5.5848
L67.1252 4.8229
" />
<path d="M68.5062 5.5848
L67.9348 5.5848
" />
<path d="M68.2205 5.5848
L68.2205 4.5848
" />
<path d="M68.2205 4.5848
L68.1252 4.7277
" />
<path d="M68.1252 4.7277
L68.0300 4.8229
" />
<path d="M68.0300 4.8229
L67.9348 4.8705
" />
<path d="M68.8871 4.6801
L68.9348 4.6324
" />
<path d="M68.9348 4.6324
L69.0300 4.5848
" />
<path d="M69.0300 4.5848
L69.2681 4.5848
" />
<path d="M69.2681 4.5848
L69.3633 4.6324
" />
<path d="M69.3633 4.6324
L69.4109 4.6801
" />
<path d="M69.4109 4.6801
L69.4586 4.7753
" />
<path d="M69.4586 4.7753
L69.4586 4.8705
" />
<path d="M69.4586 4.8705
L69.4109 5.0134
" />
<path d="M69.4109 5.0134
L68.8395 5.5848
" />
<path d="M68.8395 5.5848
L69.4586 5.5848
" />
<path d="M69.7443 4.5848
L70.0776 5.5848
" />
<path d="M70.0776 5.5848
L70.4109 4.5848
" />
</g><text x="11.4800" y="20.8700"
textLength="2.1071" font-size="1.3333" lengthAdjust="spacingAndGlyphs"
text-anchor="start" opacity="0">Zg</text>
<g class="stroked-text"><desc>Zg</desc>
<path d="M11.7215 19.8248
L12.3882 19.8248
" />
<path d="M12.3882 19.8248
L11.7215 20.8248
" />
<path d="M11.7215 20.8248
L12.3882 20.8248
" />
<path d="M13.1977 20.1582
L13.1977 20.9677
" />
<path d="M13.1977 20.9677
L13.1501 21.0629
" />
<path d="M13.1501 21.0629
L13.1025 21.1105
" />
<path d="M13.1025 21.1105
L13.0073 21.1582
" />
<path d="M13.0073 21.1582
L12.8644 21.1582
" />
<path d="M12.8644 21.1582
L12.7692 21.1105
" />
<path d="M13.1977 20.7772
L13.1025 20.8248
" />
<path d="M13.1025 20.8248
L12.9120 20.8248
" />
<path d="M12.9120 20.8248
L12.8168 20.7772
" />
<path d="M12.8168 20.7772
L12.7692 20.7296
" />
<path d="M12.7692 20.7296
L12.7215 20.6343
" />
<path d="M12.7215 20.6343
L12.7215 20.3486
" />
<path d="M12.7215 20.3486
L12.7692 20.2534
" />
<path d="M12.7692 20.2534
L12.8168 20.2058
" />
<path d="M12.8168 20.2058
L12.9120 20.1582
" />
<path d="M12.9120 20.1582
L13.1025 20.1582
" />
<path d="M13.1025 20.1582
L13.1977 20.2058
" />
</g><text x="7.6700" y="6.5825"
textLength="1.1548" font-size="1.3333" lengthAdjust="spacingAndGlyphs"
text-anchor="start" opacity="0">g</text>
<g class="stroked-text"><desc>g</desc>
<path d="M8.4353 5.8707
L8.4353 6.6802
" />
<path d="M8.4353 6.6802
L8.3877 6.7754
" />
<path d="M8.3877 6.7754
L8.3401 6.8230
" />
<path d="M8.3401 6.8230
L8.2449 6.8707
" />
<path d="M8.2449 6.8707
L8.1020 6.8707
" />
<path d="M8.1020 6.8707
L8.0068 6.8230
" />
<path d="M8.4353 6.4897
L8.3401 6.5373
" />
<path d="M8.3401 6.5373
L8.1496 6.5373
" />
<path d="M8.1496 6.5373
L8.0544 6.4897
" />
<path d="M8.0544 6.4897
L8.0068 6.4421
" />
<path d="M8.0068 6.4421
L7.9592 6.3468
" />
<path d="M7.9592 6.3468
L7.9592 6.0611
" />
<path d="M7.9592 6.0611
L8.0068 5.9659
" />
<path d="M8.0068 5.9659
L8.0544 5.9183
" />
<path d="M8.0544 5.9183
L8.1496 5.8707
" />
<path d="M8.1496 5.8707
L8.3401 5.8707
" />
<path d="M8.3401 5.8707
L8.4353 5.9183
" />
</g><text x="22.5925" y="1.8200"
textLength="3.7738" font-size="1.3333" lengthAdjust="spacingAndGlyphs"
text-anchor="start" opacity="0">Aux2</text>
<g class="stroked-text"><desc>Aux2</desc>
<path d="M22.8817 1.4891
L23.3578 1.4891
" />
<path d="M22.7864 1.7748
L23.1198 0.7748
" />
<path d="M23.1198 0.7748
L23.4531 1.7748
" />
<path d="M24.2150 1.1082
L24.2150 1.7748
" />
<path d="M23.7864 1.1082
L23.7864 1.6320
" />
<path d="M23.7864 1.6320
L23.8340 1.7272
" />
<path d="M23.8340 1.7272
L23.9293 1.7748
" />
<path d="M23.9293 1.7748
L24.0721 1.7748
" />
<path d="M24.0721 1.7748
L24.1674 1.7272
" />
<path d="M24.1674 1.7272
L24.2150 1.6796
" />
<path d="M24.5959 1.7748
L25.1198 1.1082
" />
<path d="M24.5959 1.1082
L25.1198 1.7748
" />
<path d="M25.4531 0.8701
L25.5007 0.8224
" />
<path d="M25.5007 0.8224
L25.5959 0.7748
" />
<path d="M25.5959 0.7748
L25.8340 0.7748
" />
<path d="M25.8340 0.7748
L25.9293 0.8224
" />
<path d="M25.9293 0.8224
L25.9769 0.8701
" />
<path d="M25.9769 0.8701
L26.0245 0.9653
" />
<path d="M26.0245 0.9653
L26.0245 1.0605
" />
<path d="M26.0245 1.0605
L25.9769 1.2034
" />
<path d="M25.9769 1.2034
L25.4055 1.7748
" />
<path d="M25.4055 1.7748
L26.0245 1.7748
" />
</g><text x="42.5950" y="1.8200"
textLength="2.3452" font-size="1.3333" lengthAdjust="spacingAndGlyphs"
text-anchor="start" opacity="0">-V</text>
<g class="stroked-text"><desc>-V</desc>
<path d="M42.9318 1.3939
L43.6937 1.3939
" />
<path d="M44.0270 0.7748
L44.3603 1.7748
" />
<path d="M44.3603 1.7748
L44.6937 0.7748
" />
</g><text x="46.0875" y="20.8700"
textLength="3.2976" font-size="1.3333" lengthAdjust="spacingAndGlyphs"
text-anchor="start" opacity="0">GND</text>
<g class="stroked-text"><desc>GND</desc>
<path d="M46.9481 19.8724
L46.8528 19.8248
" />
<path d="M46.8528 19.8248
L46.7100 19.8248
" />
<path d="M46.7100 19.8248
L46.5671 19.8724
" />
<path d="M46.5671 19.8724
L46.4719 19.9677
" />
<path d="M46.4719 19.9677
L46.4243 20.0629
" />
<path d="M46.4243 20.0629
L46.3767 20.2534
" />
<path d="M46.3767 20.2534
L46.3767 20.3962
" />
<path d="M46.3767 20.3962
L46.4243 20.5867
" />
<path d="M46.4243 20.5867
L46.4719 20.6820
" />
<path d="M46.4719 20.6820
L46.5671 20.7772
" />
<path d="M46.5671 20.7772
L46.7100 20.8248
" />
<path d="M46.7100 20.8248
L46.8052 20.8248
" />
<path d="M46.8052 20.8248
L46.9481 20.7772
" />
<path d="M46.9481 20.7772
L46.9957 20.7296
" />
<path d="M46.9957 20.7296
L46.9957 20.3962
" />
<path d="M46.9957 20.3962
L46.8052 20.3962
" />
<path d="M47.4243 20.8248
L47.4243 19.8248
" />
<path d="M47.4243 19.8248
L47.9957 20.8248
" />
<path d="M47.9957 20.8248
L47.9957 19.8248
" />
<path d="M48.4719 20.8248
L48.4719 19.8248
" />
<path d="M48.4719 19.8248
L48.7100 19.8248
" />
<path d="M48.7100 19.8248
L48.8528 19.8724
" />
<path d="M48.8528 19.8724
L48.9481 19.9677
" />
<path d="M48.9481 19.9677
L48.9957 20.0629
" />
<path d="M48.9957 20.0629
L49.0433 20.2534
" />
<path d="M49.0433 20.2534
L49.0433 20.3962
" />
<path d="M49.0433 20.3962
L48.9957 20.5867
" />
<path d="M48.9957 20.5867
L48.9481 20.6820
" />
<path d="M48.9481 20.6820
L48.8528 20.7772
" />
<path d="M48.8528 20.7772
L48.7100 20.8248
" />
<path d="M48.7100 20.8248
L48.4719 20.8248
" />
</g><text x="0.5450" y="17.0600"
textLength="3.2976" font-size="1.3333" lengthAdjust="spacingAndGlyphs"
text-anchor="start" opacity="0">GND</text>
<g class="stroked-text"><desc>GND</desc>
<path d="M1.4056 16.0624
L1.3103 16.0148
" />
<path d="M1.3103 16.0148
L1.1675 16.0148
" />
<path d="M1.1675 16.0148
L1.0246 16.0624
" />
<path d="M1.0246 16.0624
L0.9294 16.1577
" />
<path d="M0.9294 16.1577
L0.8818 16.2529
" />
<path d="M0.8818 16.2529
L0.8342 16.4434
" />
<path d="M0.8342 16.4434
L0.8342 16.5862
" />
<path d="M0.8342 16.5862
L0.8818 16.7767
" />
<path d="M0.8818 16.7767
L0.9294 16.8720
" />
<path d="M0.9294 16.8720
L1.0246 16.9672
" />
<path d="M1.0246 16.9672
L1.1675 17.0148
" />
<path d="M1.1675 17.0148
L1.2627 17.0148
" />
<path d="M1.2627 17.0148
L1.4056 16.9672
" />
<path d="M1.4056 16.9672
L1.4532 16.9196
" />
<path d="M1.4532 16.9196
L1.4532 16.5862
" />
<path d="M1.4532 16.5862
L1.2627 16.5862
" />
<path d="M1.8818 17.0148
L1.8818 16.0148
" />
<path d="M1.8818 16.0148
L2.4532 17.0148
" />
<path d="M2.4532 17.0148
L2.4532 16.0148
" />
<path d="M2.9294 17.0148
L2.9294 16.0148
" />
<path d="M2.9294 16.0148
L3.1675 16.0148
" />
<path d="M3.1675 16.0148
L3.3103 16.0624
" />
<path d="M3.3103 16.0624
L3.4056 16.1577
" />
<path d="M3.4056 16.1577
L3.4532 16.2529
" />
<path d="M3.4532 16.2529
L3.5008 16.4434
" />
<path d="M3.5008 16.4434
L3.5008 16.5862
" />
<path d="M3.5008 16.5862
L3.4532 16.7767
" />
<path d="M3.4532 16.7767
L3.4056 16.8720
" />
<path d="M3.4056 16.8720
L3.3103 16.9672
" />
<path d="M3.3103 16.9672
L3.1675 17.0148
" />
<path d="M3.1675 17.0148
L2.9294 17.0148
" />
</g><text x="17.8300" y="1.8200"
textLength="3.7738" font-size="1.3333" lengthAdjust="spacingAndGlyphs"
text-anchor="start" opacity="0">Aux1</text>
<g class="stroked-text"><desc>Aux1</desc>
<path d="M18.1192 1.4891
L18.5953 1.4891
" />
<path d="M18.0239 1.7748
L18.3573 0.7748
" />
<path d="M18.3573 0.7748
L18.6906 1.7748
" />
<path d="M19.4525 1.1082
L19.4525 1.7748
" />
<path d="M19.0239 1.1082
L19.0239 1.6320
" />
<path d="M19.0239 1.6320
L19.0715 1.7272
" />
<path d="M19.0715 1.7272
L19.1668 1.7748
" />
<path d="M19.1668 1.7748
L19.3096 1.7748
" />
<path d="M19.3096 1.7748
L19.4049 1.7272
" />
<path d="M19.4049 1.7272
L19.4525 1.6796
" />
<path d="M19.8334 1.7748
L20.3573 1.1082
" />
<path d="M19.8334 1.1082
L20.3573 1.7748
" />
<path d="M21.2620 1.7748
L20.6906 1.7748
" />
<path d="M20.9763 1.7748
L20.9763 0.7748
" />
<path d="M20.9763 0.7748
L20.8811 0.9177
" />
<path d="M20.8811 0.9177
L20.7858 1.0129
" />
<path d="M20.7858 1.0129
L20.6906 1.0605
" />
</g><text x="50.8500" y="1.8200"
textLength="2.3452" font-size="1.3333" lengthAdjust="spacingAndGlyphs"
text-anchor="start" opacity="0">+V</text>
<g class="stroked-text"><desc>+V</desc>
<path d="M51.1868 1.3939
L51.9487 1.3939
" />
<path d="M51.5677 1.7748
L51.5677 1.0129
" />
<path d="M52.2820 0.7748
L52.6153 1.7748
" />
<path d="M52.6153 1.7748
L52.9487 0.7748
" />
</g><text x="0.0500" y="5.6300"
textLength="4.2500" font-size="1.3333" lengthAdjust="spacingAndGlyphs"
text-anchor="start" opacity="0">+12V</text>
<g class="stroked-text"><desc>+12V</desc>
<path d="M0.3868 5.2039
L1.1487 5.2039
" />
<path d="M0.7677 5.5848
L0.7677 4.8229
" />
<path d="M2.1487 5.5848
L1.5773 5.5848
" />
<path d="M1.8630 5.5848
L1.8630 4.5848
" />
<path d="M1.8630 4.5848
L1.7677 4.7277
" />
<path d="M1.7677 4.7277
L1.6725 4.8229
" />
<path d="M1.6725 4.8229
L1.5773 4.8705
" />
<path d="M2.5296 4.6801
L2.5773 4.6324
" />
<path d="M2.5773 4.6324
L2.6725 4.5848
" />
<path d="M2.6725 4.5848
L2.9106 4.5848
" />
<path d="M2.9106 4.5848
L3.0058 4.6324
" />
<path d="M3.0058 4.6324
L3.0534 4.6801
" />
<path d="M3.0534 4.6801
L3.1011 4.7753
" />
<path d="M3.1011 4.7753
L3.1011 4.8705
" />
<path d="M3.1011 4.8705
L3.0534 5.0134
" />
<path d="M3.0534 5.0134
L2.4820 5.5848
" />
<path d="M2.4820 5.5848
L3.1011 5.5848
" />
<path d="M3.3868 4.5848
L3.7201 5.5848
" />
<path d="M3.7201 5.5848
L4.0534 4.5848
" />
</g><text x="67.6775" y="17.0600"
textLength="3.2976" font-size="1.3333" lengthAdjust="spacingAndGlyphs"
text-anchor="start" opacity="0">GND</text>
<g class="stroked-text"><desc>GND</desc>
<path d="M68.5381 16.0624
L68.4428 16.0148
" />
<path d="M68.4428 16.0148
L68.3000 16.0148
" />
<path d="M68.3000 16.0148
L68.1571 16.0624
" />
<path d="M68.1571 16.0624
L68.0619 16.1577
" />
<path d="M68.0619 16.1577
L68.0143 16.2529
" />
<path d="M68.0143 16.2529
L67.9667 16.4434
" />
<path d="M67.9667 16.4434
L67.9667 16.5862
" />
<path d="M67.9667 16.5862
L68.0143 16.7767
" />
<path d="M68.0143 16.7767
L68.0619 16.8720
" />
<path d="M68.0619 16.8720
L68.1571 16.9672
" />
<path d="M68.1571 16.9672
L68.3000 17.0148
" />
<path d="M68.3000 17.0148
L68.3952 17.0148
" />
<path d="M68.3952 17.0148
L68.5381 16.9672
" />
<path d="M68.5381 16.9672
L68.5857 16.9196
" />
<path d="M68.5857 16.9196
L68.5857 16.5862
" />
<path d="M68.5857 16.5862
L68.3952 16.5862
" />
<path d="M69.0143 17.0148
L69.0143 16.0148
" />
<path d="M69.0143 16.0148
L69.5857 17.0148
" />
<path d="M69.5857 17.0148
L69.5857 16.0148
" />
<path d="M70.0619 17.0148
L70.0619 16.0148
" />
<path d="M70.0619 16.0148
L70.3000 16.0148
" />
<path d="M70.3000 16.0148
L70.4428 16.0624
" />
<path d="M70.4428 16.0624
L70.5381 16.1577
" />
<path d="M70.5381 16.1577
L70.5857 16.2529
" />
<path d="M70.5857 16.2529
L70.6333 16.4434
" />
<path d="M70.6333 16.4434
L70.6333 16.5862
" />
<path d="M70.6333 16.5862
L70.5857 16.7767
" />
<path d="M70.5857 16.7767
L70.5381 16.8720
" />
<path d="M70.5381 16.8720
L70.4428 16.9672
" />
<path d="M70.4428 16.9672
L70.3000 17.0148
" />
<path d="M70.3000 17.0148
L70.0619 17.0148
" />
</g><text x="54.3425" y="20.8700"
textLength="3.1071" font-size="1.3333" lengthAdjust="spacingAndGlyphs"
text-anchor="start" opacity="0">Rü1</text>
<g class="stroked-text"><desc>Rü1</desc>
<path d="M55.2507 20.8248
L54.9174 20.3486
" />
<path d="M54.6793 20.8248
L54.6793 19.8248
" />
<path d="M54.6793 19.8248
L55.0602 19.8248
" />
<path d="M55.0602 19.8248
L55.1555 19.8724
" />
<path d="M55.1555 19.8724
L55.2031 19.9201
" />
<path d="M55.2031 19.9201
L55.2507 20.0153
" />
<path d="M55.2507 20.0153
L55.2507 20.1582
" />
<path d="M55.2507 20.1582
L55.2031 20.2534
" />
<path d="M55.2031 20.2534
L55.1555 20.3010
" />
<path d="M55.1555 20.3010
L55.0602 20.3486
" />
<path d="M55.0602 20.3486
L54.6793 20.3486
" />
<path d="M56.1078 20.1582
L56.1078 20.8248
" />
<path d="M55.6793 20.1582
L55.6793 20.6820
" />
<path d="M55.6793 20.6820
L55.7269 20.7772
" />
<path d="M55.7269 20.7772
L55.8221 20.8248
" />
<path d="M55.8221 20.8248
L55.9650 20.8248
" />
<path d="M55.9650 20.8248
L56.0602 20.7772
" />
<path d="M56.0602 20.7772
L56.1078 20.7296
" />
<path d="M55.7269 19.8248
L55.7745 19.8724
" />
<path d="M55.7745 19.8724
L55.7269 19.9201
" />
<path d="M55.7269 19.9201
L55.6793 19.8724
" />
<path d="M55.6793 19.8724
L55.7269 19.8248
" />
<path d="M55.7269 19.8248
L55.7269 19.9201
" />
<path d="M56.1078 19.8248
L56.1555 19.8724
" />
<path d="M56.1555 19.8724
L56.1078 19.9201
" />
<path d="M56.1078 19.9201
L56.0602 19.8724
" />
<path d="M56.0602 19.8724
L56.1078 19.8248
" />
<path d="M56.1078 19.8248
L56.1078 19.9201
" />
<path d="M57.1078 20.8248
L56.5364 20.8248
" />
<path d="M56.8221 20.8248
L56.8221 19.8248
" />
<path d="M56.8221 19.8248
L56.7269 19.9677
" />
<path d="M56.7269 19.9677
L56.6317 20.0629
" />
<path d="M56.6317 20.0629
L56.5364 20.1105
" />
</g><text x="10.2100" y="1.8200"
textLength="3.4881" font-size="1.3333" lengthAdjust="spacingAndGlyphs"
text-anchor="start" opacity="0">A1.1</text>
<g class="stroked-text"><desc>A1.1</desc>
<path d="M10.4992 1.4891
L10.9753 1.4891
" />
<path d="M10.4039 1.7748
L10.7373 0.7748
" />
<path d="M10.7373 0.7748
L11.0706 1.7748
" />
<path d="M11.9277 1.7748
L11.3563 1.7748
" />
<path d="M11.6420 1.7748
L11.6420 0.7748
" />
<path d="M11.6420 0.7748
L11.5468 0.9177
" />
<path d="M11.5468 0.9177
L11.4515 1.0129
" />
<path d="M11.4515 1.0129
L11.3563 1.0605
" />
<path d="M12.3563 1.6796
L12.4039 1.7272
" />
<path d="M12.4039 1.7272
L12.3563 1.7748
" />
<path d="M12.3563 1.7748
L12.3087 1.7272
" />
<path d="M12.3087 1.7272
L12.3563 1.6796
" />
<path d="M12.3563 1.6796
L12.3563 1.7748
" />
<path d="M13.3563 1.7748
L12.7849 1.7748
" />
<path d="M13.0706 1.7748
L13.0706 0.7748
" />
<path d="M13.0706 0.7748
L12.9753 0.9177
" />
<path d="M12.9753 0.9177
L12.8801 1.0129
" />
<path d="M12.8801 1.0129
L12.7849 1.0605
" />
</g><text x="54.3425" y="1.8200"
textLength="2.6786" font-size="1.3333" lengthAdjust="spacingAndGlyphs"
text-anchor="start" opacity="0">fb1</text>
<g class="stroked-text"><desc>fb1</desc>
<path d="M54.5364 1.1082
L54.9174 1.1082
" />
<path d="M54.6793 1.7748
L54.6793 0.9177
" />
<path d="M54.6793 0.9177
L54.7269 0.8224
" />
<path d="M54.7269 0.8224
L54.8221 0.7748
" />
<path d="M54.8221 0.7748
L54.9174 0.7748
" />
<path d="M55.2507 1.7748
L55.2507 0.7748
" />
<path d="M55.2507 1.1558
L55.3459 1.1082
" />
<path d="M55.3459 1.1082
L55.5364 1.1082
" />
<path d="M55.5364 1.1082
L55.6317 1.1558
" />
<path d="M55.6317 1.1558
L55.6793 1.2034
" />
<path d="M55.6793 1.2034
L55.7269 1.2986
" />
<path d="M55.7269 1.2986
L55.7269 1.5843
" />
<path d="M55.7269 1.5843
L55.6793 1.6796
" />
<path d="M55.6793 1.6796
L55.6317 1.7272
" />
<path d="M55.6317 1.7272
L55.5364 1.7748
" />
<path d="M55.5364 1.7748
L55.3459 1.7748
" />
<path d="M55.3459 1.7748
L55.2507 1.7272
" />
<path d="M56.6793 1.7748
L56.1079 1.7748
" />
<path d="M56.3936 1.7748
L56.3936 0.7748
" />
<path d="M56.3936 0.7748
L56.2983 0.9177
" />
<path d="M56.2983 0.9177
L56.2031 1.0129
" />
<path d="M56.2031 1.0129
L56.1079 1.0605
" />
</g><text x="30.2125" y="1.8200"
textLength="3.4881" font-size="1.3333" lengthAdjust="spacingAndGlyphs"
text-anchor="start" opacity="0">A2.2</text>
<g class="stroked-text"><desc>A2.2</desc>
<path d="M30.5017 1.4891
L30.9779 1.4891
" />
<path d="M30.4064 1.7748
L30.7398 0.7748
" />
<path d="M30.7398 0.7748
L31.0731 1.7748
" />
<path d="M31.3588 0.8701
L31.4064 0.8224
" />
<path d="M31.4064 0.8224
L31.5017 0.7748
" />
<path d="M31.5017 0.7748
L31.7398 0.7748
" />
<path d="M31.7398 0.7748
L31.8350 0.8224
" />
<path d="M31.8350 0.8224
L31.8826 0.8701
" />
<path d="M31.8826 0.8701
L31.9302 0.9653
" />
<path d="M31.9302 0.9653
L31.9302 1.0605
" />
<path d="M31.9302 1.0605
L31.8826 1.2034
" />
<path d="M31.8826 1.2034
L31.3112 1.7748
" />
<path d="M31.3112 1.7748
L31.9302 1.7748
" />
<path d="M32.3588 1.6796
L32.4064 1.7272
" />
<path d="M32.4064 1.7272
L32.3588 1.7748
" />
<path d="M32.3588 1.7748
L32.3112 1.7272
" />
<path d="M32.3112 1.7272
L32.3588 1.6796
" />
<path d="M32.3588 1.6796
L32.3588 1.7748
" />
<path d="M32.7874 0.8701
L32.8350 0.8224
" />
<path d="M32.8350 0.8224
L32.9302 0.7748
" />
<path d="M32.9302 0.7748
L33.1683 0.7748
" />
<path d="M33.1683 0.7748
L33.2636 0.8224
" />
<path d="M33.2636 0.8224
L33.3112 0.8701
" />
<path d="M33.3112 0.8701
L33.3588 0.9653
" />
<path d="M33.3588 0.9653
L33.3588 1.0605
" />
<path d="M33.3588 1.0605
L33.3112 1.2034
" />
<path d="M33.3112 1.2034
L32.7398 1.7748
" />
<path d="M32.7398 1.7748
L33.3588 1.7748
" />
</g><text x="19.1000" y="20.8700"
textLength="1.2976" font-size="1.3333" lengthAdjust="spacingAndGlyphs"
text-anchor="start" opacity="0">H</text>
<g class="stroked-text"><desc>H</desc>
<path d="M19.4368 20.8248
L19.4368 19.8248
" />
<path d="M19.4368 20.3010
L20.0082 20.3010
" />
<path d="M20.0082 20.8248
L20.0082 19.8248
" />
</g><text x="57.8350" y="20.8700"
textLength="3.1071" font-size="1.3333" lengthAdjust="spacingAndGlyphs"
text-anchor="start" opacity="0">Rü2</text>
<g class="stroked-text"><desc>Rü2</desc>
<path d="M58.7432 20.8248
L58.4099 20.3486
" />
<path d="M58.1718 20.8248
L58.1718 19.8248
" />
<path d="M58.1718 19.8248
L58.5527 19.8248
" />
<path d="M58.5527 19.8248
L58.6480 19.8724
" />
<path d="M58.6480 19.8724
L58.6956 19.9201
" />
<path d="M58.6956 19.9201
L58.7432 20.0153
" />
<path d="M58.7432 20.0153
L58.7432 20.1582
" />
<path d="M58.7432 20.1582
L58.6956 20.2534
" />
<path d="M58.6956 20.2534
L58.6480 20.3010
" />
<path d="M58.6480 20.3010
L58.5527 20.3486
" />
<path d="M58.5527 20.3486
L58.1718 20.3486
" />
<path d="M59.6003 20.1582
L59.6003 20.8248
" />
<path d="M59.1718 20.1582
L59.1718 20.6820
" />
<path d="M59.1718 20.6820
L59.2194 20.7772
" />
<path d="M59.2194 20.7772
L59.3146 20.8248
" />
<path d="M59.3146 20.8248
L59.4575 20.8248
" />
<path d="M59.4575 20.8248
L59.5527 20.7772
" />
<path d="M59.5527 20.7772
L59.6003 20.7296
" />
<path d="M59.2194 19.8248
L59.2670 19.8724
" />
<path d="M59.2670 19.8724
L59.2194 19.9201
" />
<path d="M59.2194 19.9201
L59.1718 19.8724
" />
<path d="M59.1718 19.8724
L59.2194 19.8248
" />
<path d="M59.2194 19.8248
L59.2194 19.9201
" />
<path d="M59.6003 19.8248
L59.6480 19.8724
" />
<path d="M59.6480 19.8724
L59.6003 19.9201
" />
<path d="M59.6003 19.9201
L59.5527 19.8724
" />
<path d="M59.5527 19.8724
L59.6003 19.8248
" />
<path d="M59.6003 19.8248
L59.6003 19.9201
" />
<path d="M60.0289 19.9201
L60.0765 19.8724
" />
<path d="M60.0765 19.8724
L60.1718 19.8248
" />
<path d="M60.1718 19.8248
L60.4099 19.8248
" />
<path d="M60.4099 19.8248
L60.5051 19.8724
" />
<path d="M60.5051 19.8724
L60.5527 19.9201
" />
<path d="M60.5527 19.9201
L60.6003 20.0153
" />
<path d="M60.6003 20.0153
L60.6003 20.1105
" />
<path d="M60.6003 20.1105
L60.5527 20.2534
" />
<path d="M60.5527 20.2534
L59.9813 20.8248
" />
<path d="M59.9813 20.8248
L60.6003 20.8248
" />
</g><text x="26.7200" y="1.8200"
textLength="3.4881" font-size="1.3333" lengthAdjust="spacingAndGlyphs"
text-anchor="start" opacity="0">A2.1</text>
<g class="stroked-text"><desc>A2.1</desc>
<path d="M27.0092 1.4891
L27.4854 1.4891
" />
<path d="M26.9139 1.7748
L27.2473 0.7748
" />
<path d="M27.2473 0.7748
L27.5806 1.7748
" />
<path d="M27.8663 0.8701
L27.9139 0.8224
" />
<path d="M27.9139 0.8224
L28.0092 0.7748
" />
<path d="M28.0092 0.7748
L28.2473 0.7748
" />
<path d="M28.2473 0.7748
L28.3425 0.8224
" />
<path d="M28.3425 0.8224
L28.3901 0.8701
" />
<path d="M28.3901 0.8701
L28.4377 0.9653
" />
<path d="M28.4377 0.9653
L28.4377 1.0605
" />
<path d="M28.4377 1.0605
L28.3901 1.2034
" />
<path d="M28.3901 1.2034
L27.8187 1.7748
" />
<path d="M27.8187 1.7748
L28.4377 1.7748
" />
<path d="M28.8663 1.6796
L28.9139 1.7272
" />
<path d="M28.9139 1.7272
L28.8663 1.7748
" />
<path d="M28.8663 1.7748
L28.8187 1.7272
" />
<path d="M28.8187 1.7272
L28.8663 1.6796
" />
<path d="M28.8663 1.6796
L28.8663 1.7748
" />
<path d="M29.8663 1.7748
L29.2949 1.7748
" />
<path d="M29.5806 1.7748
L29.5806 0.7748
" />
<path d="M29.5806 0.7748
L29.4854 0.9177
" />
<path d="M29.4854 0.9177
L29.3901 1.0129
" />
<path d="M29.3901 1.0129
L29.2949 1.0605
" />
</g><text x="34.9750" y="20.8700"
textLength="1.9167" font-size="1.3333" lengthAdjust="spacingAndGlyphs"
text-anchor="start" opacity="0">Tg</text>
<g class="stroked-text"><desc>Tg</desc>
<path d="M35.1689 19.8248
L35.7403 19.8248
" />
<path d="M35.4546 20.8248
L35.4546 19.8248
" />
<path d="M36.5023 20.1582
L36.5023 20.9677
" />
<path d="M36.5023 20.9677
L36.4546 21.0629
" />
<path d="M36.4546 21.0629
L36.4070 21.1105
" />
<path d="M36.4070 21.1105
L36.3118 21.1582
" />
<path d="M36.3118 21.1582
L36.1689 21.1582
" />
<path d="M36.1689 21.1582
L36.0737 21.1105
" />
<path d="M36.5023 20.7772
L36.4070 20.8248
" />
<path d="M36.4070 20.8248
L36.2165 20.8248
" />
<path d="M36.2165 20.8248
L36.1213 20.7772
" />
<path d="M36.1213 20.7772
L36.0737 20.7296
" />
<path d="M36.0737 20.7296
L36.0261 20.6343
" />
<path d="M36.0261 20.6343
L36.0261 20.3486
" />
<path d="M36.0261 20.3486
L36.0737 20.2534
" />
<path d="M36.0737 20.2534
L36.1213 20.2058
" />
<path d="M36.1213 20.2058
L36.2165 20.1582
" />
<path d="M36.2165 20.1582
L36.4070 20.1582
" />
<path d="M36.4070 20.1582
L36.5023 20.2058
" />
</g><text x="14.9725" y="20.8700"
textLength="2.1071" font-size="1.3333" lengthAdjust="spacingAndGlyphs"
text-anchor="start" opacity="0">Za</text>
<g class="stroked-text"><desc>Za</desc>
<path d="M15.2140 19.8248
L15.8807 19.8248
" />
<path d="M15.8807 19.8248
L15.2140 20.8248
" />
<path d="M15.2140 20.8248
L15.8807 20.8248
" />
<path d="M16.6902 20.8248
L16.6902 20.3010
" />
<path d="M16.6902 20.3010
L16.6426 20.2058
" />
<path d="M16.6426 20.2058
L16.5474 20.1582
" />
<path d="M16.5474 20.1582
L16.3569 20.1582
" />
<path d="M16.3569 20.1582
L16.2617 20.2058
" />
<path d="M16.6902 20.7772
L16.5950 20.8248
" />
<path d="M16.5950 20.8248
L16.3569 20.8248
" />
<path d="M16.3569 20.8248
L16.2617 20.7772
" />
<path d="M16.2617 20.7772
L16.2140 20.6820
" />
<path d="M16.2140 20.6820
L16.2140 20.5867
" />
<path d="M16.2140 20.5867
L16.2617 20.4915
" />
<path d="M16.2617 20.4915
L16.3569 20.4439
" />
<path d="M16.3569 20.4439
L16.5950 20.4439
" />
<path d="M16.5950 20.4439
L16.6902 20.3962
" />
</g><text x="57.8350" y="1.8200"
textLength="2.6786" font-size="1.3333" lengthAdjust="spacingAndGlyphs"
text-anchor="start" opacity="0">fb2</text>
<g class="stroked-text"><desc>fb2</desc>
<path d="M58.0289 1.1082
L58.4099 1.1082
" />
<path d="M58.1718 1.7748
L58.1718 0.9177
" />
<path d="M58.1718 0.9177
L58.2194 0.8224
" />
<path d="M58.2194 0.8224
L58.3146 0.7748
" />
<path d="M58.3146 0.7748
L58.4099 0.7748
" />
<path d="M58.7432 1.7748
L58.7432 0.7748
" />
<path d="M58.7432 1.1558
L58.8384 1.1082
" />
<path d="M58.8384 1.1082
L59.0289 1.1082
" />
<path d="M59.0289 1.1082
L59.1242 1.1558
" />
<path d="M59.1242 1.1558
L59.1718 1.2034
" />
<path d="M59.1718 1.2034
L59.2194 1.2986
" />
<path d="M59.2194 1.2986
L59.2194 1.5843
" />
<path d="M59.2194 1.5843
L59.1718 1.6796
" />
<path d="M59.1718 1.6796
L59.1242 1.7272
" />
<path d="M59.1242 1.7272
L59.0289 1.7748
" />
<path d="M59.0289 1.7748
L58.8384 1.7748
" />
<path d="M58.8384 1.7748
L58.7432 1.7272
" />
<path d="M59.6004 0.8701
L59.6480 0.8224
" />
<path d="M59.6480 0.8224
L59.7432 0.7748
" />
<path d="M59.7432 0.7748
L59.9813 0.7748
" />
<path d="M59.9813 0.7748
L60.0765 0.8224
" />
<path d="M60.0765 0.8224
L60.1242 0.8701
" />
<path d="M60.1242 0.8701
L60.1718 0.9653
" />
<path d="M60.1718 0.9653
L60.1718 1.0605
" />
<path d="M60.1718 1.0605
L60.1242 1.2034
" />
<path d="M60.1242 1.2034
L59.5527 1.7748
" />
<path d="M59.5527 1.7748
L60.1718 1.7748
" />
</g></g>
<g style="fill:#008484; fill-opacity:0.0; 
stroke:#008484; stroke-width:0.1200; stroke-opacity:1; 
stroke-linecap:round; stroke-linejoin:round;">
<path d="M29.2900 11.3400
L29.2900 19.2400
" />
<path d="M26.6900 11.3400
L29.2900 11.3400
" />
<path d="M29.2900 19.2400
L26.6900 19.2400
" />
<path d="M26.6900 19.2400
L26.6900 11.3400
" />
<path d="M62.4575 11.7675
L70.3575 11.7675
" />
<path d="M62.4575 14.3675
L62.4575 11.7675
" />
<path d="M70.3575 11.7675
L70.3575 14.3675
" />
<path d="M70.3575 14.3675
L62.4575 14.3675
" />
<path d="M8.4450 14.3675
L0.5450 14.3675
" />
<path d="M8.4450 11.7675
L8.4450 14.3675
" />
<path d="M0.5450 14.3675
L0.5450 11.7675
" />
<path d="M0.5450 11.7675
L8.4450 11.7675
" />
<path d="M37.8025 10.3500
L37.8025 2.4500
" />
<path d="M40.4025 10.3500
L37.8025 10.3500
" />
<path d="M37.8025 2.4500
L40.4025 2.4500
" />
<path d="M40.4025 2.4500
L40.4025 10.3500
" />
<path d="M44.5300 11.3400
L44.5300 19.2400
" />
<path d="M41.9300 11.3400
L44.5300 11.3400
" />
<path d="M44.5300 19.2400
L41.9300 19.2400
" />
<path d="M41.9300 19.2400
L41.9300 11.3400
" />
<path d="M62.4575 7.3225
L70.3575 7.3225
" />
<path d="M62.4575 9.9225
L62.4575 7.3225
" />
<path d="M70.3575 7.3225
L70.3575 9.9225
" />
<path d="M70.3575 9.9225
L62.4575 9.9225
" />
<path d="M14.3075 10.3500
L14.3075 2.4500
" />
<path d="M16.9075 10.3500
L14.3075 10.3500
" />
<path d="M14.3075 2.4500
L16.9075 2.4500
" />
<path d="M16.9075 2.4500
L16.9075 10.3500
" />
<path d="M50.1850 19.2400
L50.1850 11.3400
" />
<path d="M52.7850 19.2400
L50.1850 19.2400
" />
<path d="M50.1850 11.3400
L52.7850 11.3400
" />
<path d="M52.7850 11.3400
L52.7850 19.2400
" />
<path d="M34.3100 10.3500
L34.3100 2.4500
" />
<path d="M36.9100 10.3500
L34.3100 10.3500
" />
<path d="M34.3100 2.4500
L36.9100 2.4500
" />
<path d="M36.9100 2.4500
L36.9100 10.3500
" />
<path d="M40.4025 11.3400
L40.4025 19.2400
" />
<path d="M37.8025 11.3400
L40.4025 11.3400
" />
<path d="M40.4025 19.2400
L37.8025 19.2400
" />
<path d="M37.8025 19.2400
L37.8025 11.3400
" />
<path d="M32.7825 11.3400
L32.7825 19.2400
" />
<path d="M30.1825 11.3400
L32.7825 11.3400
" />
<path d="M32.7825 19.2400
L30.1825 19.2400
" />
<path d="M30.1825 19.2400
L30.1825 11.3400
" />
<path d="M70.3575 3.8900
L62.4575 3.8900
" />
<path d="M70.3575 1.2900
L70.3575 3.8900
" />
<path d="M62.4575 3.8900
L62.4575 1.2900
" />
<path d="M62.4575 1.2900
L70.3575 1.2900
" />
<path d="M13.4150 11.3400
L13.4150 19.2400
" />
<path d="M10.8150 11.3400
L13.4150 11.3400
" />
<path d="M13.4150 19.2400
L10.8150 19.2400
" />
<path d="M10.8150 19.2400
L10.8150 11.3400
" />
<path d="M8.4450 9.9225
L0.5450 9.9225
" />
<path d="M8.4450 7.3225
L8.4450 9.9225
" />
<path d="M0.5450 9.9225
L0.5450 7.3225
" />
<path d="M0.5450 7.3225
L8.4450 7.3225
" />
<path d="M22.5625 10.3500
L22.5625 2.4500
" />
<path d="M25.1625 10.3500
L22.5625 10.3500
" />
<path d="M22.5625 2.4500
L25.1625 2.4500
" />
<path d="M25.1625 2.4500
L25.1625 10.3500
" />
<path d="M41.9300 10.3500
L41.9300 2.4500
" />
<path d="M44.5300 10.3500
L41.9300 10.3500
" />
<path d="M41.9300 2.4500
L44.5300 2.4500
" />
<path d="M44.5300 2.4500
L44.5300 10.3500
" />
<path d="M48.6575 11.3400
L48.6575 19.2400
" />
<path d="M46.0575 11.3400
L48.6575 11.3400
" />
<path d="M48.6575 19.2400
L46.0575 19.2400
" />
<path d="M46.0575 19.2400
L46.0575 11.3400
" />
<path d="M0.5450 17.8000
L8.4450 17.8000
" />
<path d="M0.5450 20.4000
L0.5450 17.8000
" />
<path d="M8.4450 17.8000
L8.4450 20.4000
" />
<path d="M8.4450 20.4000
L0.5450 20.4000
" />
<path d="M18.4350 10.3500
L18.4350 2.4500
" />
<path d="M21.0350 10.3500
L18.4350 10.3500
" />
<path d="M18.4350 2.4500
L21.0350 2.4500
" />
<path d="M21.0350 2.4500
L21.0350 10.3500
" />
<path d="M50.1850 10.3500
L50.1850 2.4500
" />
<path d="M52.7850 10.3500
L50.1850 10.3500
" />
<path d="M50.1850 2.4500
L52.7850 2.4500
" />
<path d="M52.7850 2.4500
L52.7850 10.3500
" />
<path d="M0.5450 1.2900
L8.4450 1.2900
" />
<path d="M0.5450 3.8900
L0.5450 1.2900
" />
<path d="M8.4450 1.2900
L8.4450 3.8900
" />
<path d="M8.4450 3.8900
L0.5450 3.8900
" />
<path d="M62.4575 17.8000
L70.3575 17.8000
" />
<path d="M62.4575 20.4000
L62.4575 17.8000
" />
<path d="M70.3575 17.8000
L70.3575 20.4000
" />
<path d="M70.3575 20.4000
L62.4575 20.4000
" />
<path d="M54.3125 19.2400
L54.3125 11.3400
" />
<path d="M56.9125 19.2400
L54.3125 19.2400
" />
<path d="M54.3125 11.3400
L56.9125 11.3400
" />
<path d="M56.9125 11.3400
L56.9125 19.2400
" />
<path d="M10.8150 10.3500
L10.8150 2.4500
" />
<path d="M13.4150 10.3500
L10.8150 10.3500
" />
<path d="M10.8150 2.4500
L13.4150 2.4500
" />
<path d="M13.4150 2.4500
L13.4150 10.3500
" />
<path d="M54.3125 10.3500
L54.3125 2.4500
" />
<path d="M56.9125 10.3500
L54.3125 10.3500
" />
<path d="M54.3125 2.4500
L56.9125 2.4500
" />
<path d="M56.9125 2.4500
L56.9125 10.3500
" />
<path d="M30.1825 10.3500
L30.1825 2.4500
" />
<path d="M32.7825 10.3500
L30.1825 10.3500
" />
<path d="M30.1825 2.4500
L32.7825 2.4500
" />
<path d="M32.7825 2.4500
L32.7825 10.3500
" />
<path d="M21.0350 11.3400
L21.0350 19.2400
" />
<path d="M18.4350 11.3400
L21.0350 11.3400
" />
<path d="M21.0350 19.2400
L18.4350 19.2400
" />
<path d="M18.4350 19.2400
L18.4350 11.3400
" />
<path d="M57.8050 19.2400
L57.8050 11.3400
" />
<path d="M60.4050 19.2400
L57.8050 19.2400
" />
<path d="M57.8050 11.3400
L60.4050 11.3400
" />
<path d="M60.4050 11.3400
L60.4050 19.2400
" />
<path d="M26.6900 10.3500
L26.6900 2.4500
" />
<path d="M29.2900 10.3500
L26.6900 10.3500
" />
<path d="M26.6900 2.4500
L29.2900 2.4500
" />
<path d="M29.2900 2.4500
L29.2900 10.3500
" />
<path d="M36.9100 11.3400
L36.9100 19.2400
" />
<path d="M34.3100 11.3400
L36.9100 11.3400
" />
<path d="M36.9100 19.2400
L34.3100 19.2400
" />
<path d="M34.3100 19.2400
L34.3100 11.3400
" />
<path d="M16.9075 11.3400
L16.9075 19.2400
" />
<path d="M14.3075 11.3400
L16.9075 11.3400
" />
<path d="M16.9075 19.2400
L14.3075 19.2400
" />
<path d="M14.3075 19.2400
L14.3075 11.3400
" />
<path d="M57.8050 10.3500
L57.8050 2.4500
" />
<path d="M60.4050 10.3500
L57.8050 10.3500
" />
<path d="M57.8050 2.4500
L60.4050 2.4500
" />
<path d="M60.4050 2.4500
L60.4050 10.3500
" />
<g >
</g>
<g >
</g>
<g >
</g>
<g >
</g>
<g >
</g>
<g >
</g>
<g >
</g>
<g >
</g>
<g >
</g>
<g >
</g>
<g >
</g>
<g >
</g>
<g >
</g>
<g >
</g>
<g >
</g>
<g >
</g>
<g >
</g>
<g >
</g>
<g >
</g>
<g >
</g>
<g >
</g>
<g >
</g>
<g >
</g>
<g >
</g>
<g >
</g>
<g >
</g>
<g >
</g>
<g >
</g>
<g >
</g>
<g >
</g>
<g >
</g>
<g >
</g>
<g >
</g>
<g >
</g>
<g >
</g>
<g >
</g>
<g >
</g>
</g>
<g style="fill:#000000; fill-opacity:0.0; 
stroke:#000000; stroke-width:0.1200; stroke-opacity:1; 
stroke-linecap:round; stroke-linejoin:round;">
</g>
<g style="fill:#C2C2C2; fill-opacity:0.0; 
stroke:#C2C2C2; stroke-width:0.1200; stroke-opacity:1; 
stroke-linecap:round; stroke-linejoin:round;">
</g>
<g style="fill:#C2C2C2; fill-opacity:0.0; 
stroke:#C2C2C2; stroke-width:0.0500; stroke-opacity:1; 
stroke-linecap:round; stroke-linejoin:round;">
<path d="M29.5900 11.0400
L26.3900 11.0400
" />
<path d="M29.5900 11.0400
L29.5900 19.5400
" />
<path d="M26.3900 19.5400
L26.3900 11.0400
" />
<path d="M26.3900 19.5400
L29.5900 19.5400
" />
<path d="M62.1575 11.4675
L62.1575 14.6675
" />
<path d="M62.1575 11.4675
L70.6575 11.4675
" />
<path d="M70.6575 14.6675
L62.1575 14.6675
" />
<path d="M70.6575 14.6675
L70.6575 11.4675
" />
<circle cx="23.8625" cy="15.9250" r="2.3500" /> 
<path d="M8.7450 14.6675
L8.7450 11.4675
" />
<path d="M8.7450 14.6675
L0.2450 14.6675
" />
<path d="M0.2450 11.4675
L8.7450 11.4675
" />
<path d="M0.2450 11.4675
L0.2450 14.6675
" />
<path d="M37.5025 10.6500
L40.7025 10.6500
" />
<path d="M37.5025 10.6500
L37.5025 2.1500
" />
<path d="M40.7025 2.1500
L40.7025 10.6500
" />
<path d="M40.7025 2.1500
L37.5025 2.1500
" />
<path d="M44.8300 11.0400
L41.6300 11.0400
" />
<path d="M44.8300 11.0400
L44.8300 19.5400
" />
<path d="M41.6300 19.5400
L41.6300 11.0400
" />
<path d="M41.6300 19.5400
L44.8300 19.5400
" />
<path d="M62.1575 7.0225
L62.1575 10.2225
" />
<path d="M62.1575 7.0225
L70.6575 7.0225
" />
<path d="M70.6575 10.2225
L62.1575 10.2225
" />
<path d="M70.6575 10.2225
L70.6575 7.0225
" />
<path d="M14.0075 10.6500
L17.2075 10.6500
" />
<path d="M14.0075 10.6500
L14.0075 2.1500
" />
<path d="M17.2075 2.1500
L17.2075 10.6500
" />
<path d="M17.2075 2.1500
L14.0075 2.1500
" />
<path d="M49.8850 19.5400
L53.0850 19.5400
" />
<path d="M49.8850 19.5400
L49.8850 11.0400
" />
<path d="M53.0850 11.0400
L53.0850 19.5400
" />
<path d="M53.0850 11.0400
L49.8850 11.0400
" />
<path d="M34.0100 10.6500
L37.2100 10.6500
" />
<path d="M34.0100 10.6500
L34.0100 2.1500
" />
<path d="M37.2100 2.1500
L37.2100 10.6500
" />
<path d="M37.2100 2.1500
L34.0100 2.1500
" />
<path d="M40.7025 11.0400
L37.5025 11.0400
" />
<path d="M40.7025 11.0400
L40.7025 19.5400
" />
<path d="M37.5025 19.5400
L37.5025 11.0400
" />
<path d="M37.5025 19.5400
L40.7025 19.5400
" />
<path d="M33.0825 11.0400
L29.8825 11.0400
" />
<path d="M33.0825 11.0400
L33.0825 19.5400
" />
<path d="M29.8825 19.5400
L29.8825 11.0400
" />
<path d="M29.8825 19.5400
L33.0825 19.5400
" />
<path d="M70.6575 4.1900
L70.6575 0.9900
" />
<path d="M70.6575 4.1900
L62.1575 4.1900
" />
<path d="M62.1575 0.9900
L70.6575 0.9900
" />
<path d="M62.1575 0.9900
L62.1575 4.1900
" />
<path d="M13.7150 11.0400
L10.5150 11.0400
" />
<path d="M13.7150 11.0400
L13.7150 19.5400
" />
<path d="M10.5150 19.5400
L10.5150 11.0400
" />
<path d="M10.5150 19.5400
L13.7150 19.5400
" />
<path d="M8.7450 10.2225
L8.7450 7.0225
" />
<path d="M8.7450 10.2225
L0.2450 10.2225
" />
<path d="M0.2450 7.0225
L8.7450 7.0225
" />
<path d="M0.2450 7.0225
L0.2450 10.2225
" />
<path d="M22.2625 10.6500
L25.4625 10.6500
" />
<path d="M22.2625 10.6500
L22.2625 2.1500
" />
<path d="M25.4625 2.1500
L25.4625 10.6500
" />
<path d="M25.4625 2.1500
L22.2625 2.1500
" />
<path d="M41.6300 10.6500
L44.8300 10.6500
" />
<path d="M41.6300 10.6500
L41.6300 2.1500
" />
<path d="M44.8300 2.1500
L44.8300 10.6500
" />
<path d="M44.8300 2.1500
L41.6300 2.1500
" />
<path d="M48.9575 11.0400
L45.7575 11.0400
" />
<path d="M48.9575 11.0400
L48.9575 19.5400
" />
<path d="M45.7575 19.5400
L45.7575 11.0400
" />
<path d="M45.7575 19.5400
L48.9575 19.5400
" />
<path d="M0.2450 17.5000
L0.2450 20.7000
" />
<path d="M0.2450 17.5000
L8.7450 17.5000
" />
<path d="M8.7450 20.7000
L0.2450 20.7000
" />
<path d="M8.7450 20.7000
L8.7450 17.5000
" />
<path d="M18.1350 10.6500
L21.3350 10.6500
" />
<path d="M18.1350 10.6500
L18.1350 2.1500
" />
<path d="M21.3350 2.1500
L21.3350 10.6500
" />
<path d="M21.3350 2.1500
L18.1350 2.1500
" />
<path d="M49.8850 10.6500
L53.0850 10.6500
" />
<path d="M49.8850 10.6500
L49.8850 2.1500
" />
<path d="M53.0850 2.1500
L53.0850 10.6500
" />
<path d="M53.0850 2.1500
L49.8850 2.1500
" />
<path d="M0.2450 0.9900
L0.2450 4.1900
" />
<path d="M0.2450 0.9900
L8.7450 0.9900
" />
<path d="M8.7450 4.1900
L0.2450 4.1900
" />
<path d="M8.7450 4.1900
L8.7450 0.9900
" />
<path d="M62.1575 17.5000
L62.1575 20.7000
" />
<path d="M62.1575 17.5000
L70.6575 17.5000
" />
<path d="M70.6575 20.7000
L62.1575 20.7000
" />
<path d="M70.6575 20.7000
L70.6575 17.5000
" />
<path d="M54.0125 19.5400
L57.2125 19.5400
" />
<path d="M54.0125 19.5400
L54.0125 11.0400
" />
<path d="M57.2125 11.0400
L57.2125 19.5400
" />
<path d="M57.2125 11.0400
L54.0125 11.0400
" />
<path d="M10.5150 10.6500
L13.7150 10.6500
" />
<path d="M10.5150 10.6500
L10.5150 2.1500
" />
<path d="M13.7150 2.1500
L13.7150 10.6500
" />
<path d="M13.7150 2.1500
L10.5150 2.1500
" />
<path d="M54.0125 10.6500
L57.2125 10.6500
" />
<path d="M54.0125 10.6500
L54.0125 2.1500
" />
<path d="M57.2125 2.1500
L57.2125 10.6500
" />
<path d="M57.2125 2.1500
L54.0125 2.1500
" />
<path d="M29.8825 10.6500
L33.0825 10.6500
" />
<path d="M29.8825 10.6500
L29.8825 2.1500
" />
<path d="M33.0825 2.1500
L33.0825 10.6500
" />
<path d="M33.0825 2.1500
L29.8825 2.1500
" />
<path d="M21.3350 11.0400
L18.1350 11.0400
" />
<path d="M21.3350 11.0400
L21.3350 19.5400
" />
<path d="M18.1350 19.5400
L18.1350 11.0400
" />
<path d="M18.1350 19.5400
L21.3350 19.5400
" />
<path d="M57.5050 19.5400
L60.7050 19.5400
" />
<path d="M57.5050 19.5400
L57.5050 11.0400
" />
<path d="M60.7050 11.0400
L60.7050 19.5400
" />
<path d="M60.7050 11.0400
L57.5050 11.0400
" />
<path d="M26.3900 10.6500
L29.5900 10.6500
" />
<path d="M26.3900 10.6500
L26.3900 2.1500
" />
<path d="M29.5900 2.1500
L29.5900 10.6500
" />
<path d="M29.5900 2.1500
L26.3900 2.1500
" />
<path d="M37.2100 11.0400
L34.0100 11.0400
" />
<path d="M37.2100 11.0400
L37.2100 19.5400
" />
<path d="M34.0100 19.5400
L34.0100 11.0400
" />
<path d="M34.0100 19.5400
L37.2100 19.5400
" />
<path d="M17.2075 11.0400
L14.0075 11.0400
" />
<path d="M17.2075 11.0400
L17.2075 19.5400
" />
<path d="M14.0075 19.5400
L14.0075 11.0400
" />
<path d="M14.0075 19.5400
L17.2075 19.5400
" />
<path d="M57.5050 10.6500
L60.7050 10.6500
" />
<path d="M57.5050 10.6500
L57.5050 2.1500
" />
<path d="M60.7050 2.1500
L60.7050 10.6500
" />
<path d="M60.7050 2.1500
L57.5050 2.1500
" />
<circle cx="47.3575" cy="5.7650" r="2.3500" /> 
<g >
</g>
<g >
</g>
<g >
</g>
<g >
</g>
<g >
</g>
<g >
</g>
<g >
</g>
<g >
</g>
<g >
</g>
<g >
</g>
<g >
</g>
<g >
</g>
<g >
</g>
<g >
</g>
<g >
</g>
<g >
</g>
<g >
</g>
<g >
</g>
<g >
</g>
<g >
</g>
<g >
</g>
<g >
</g>
<g >
</g>
<g >
</g>
<g >
</g>
<g >
</g>
<g >
</g>
<g >
</g>
<g >
</g>
<g >
</g>
<g >
</g>
<g >
</g>
<g >
</g>
<g >
</g>
<g >
</g>
<g >
</g>
<g >
</g>
</g>
<g style="fill:#000000; fill-opacity:0.0; 
stroke:#000000; stroke-width:0.0500; stroke-opacity:1; 
stroke-linecap:round; stroke-linejoin:round;">
</g>
<g style="fill:#C2C200; fill-opacity:0.0; 
stroke:#C2C200; stroke-width:0.0500; stroke-opacity:1; 
stroke-linecap:round; stroke-linejoin:round;">
</g>
<g style="fill:#C2C200; fill-opacity:0.0; 
stroke:#C2C200; stroke-width:0.1000; stroke-opacity:1; 
stroke-linecap:round; stroke-linejoin:round;">
<path d="M70.8525 0.0500
L70.8525 21.6400
" />
<path d="M70.8525 21.6400
L0.0500 21.6400
" />
<path d="M0.0500 21.6400
L0.0500 0.0500
" />
<path d="M0.0500 0.0500
L70.8525 0.0500
" />
<g >
</g>
<g >
</g>
<g >
</g>
<g >
</g>
<g >
</g>
<g >
</g>
<g >
</g>
<g >
</g>
<g >
</g>
<g >
</g>
<g >
</g>
<g >
</g>
<g >
</g>
<g >
</g>
<g >
</g>
<g >
</g>
<g >
</g>
<g >
</g>
<g >
</g>
<g >
</g>
<g >
</g>
<g >
</g>
<g >
</g>
<g >
</g>
<g >
</g>
<g >
</g>
<g >
</g>
<g >
</g>
<g >
</g>
<g >
</g>
<g >
</g>
<g >
</g>
<g >
</g>
<g >
</g>
<g >
</g>
<g >
</g>
<g >
</g>
</g> 
</svg>
